<?xml version="1.0" encoding="iso-8859-1"?>
<!-- Generator: Adobe Illustrator 21.1.0, SVG Export Plug-In . SVG Version: 6.00 Build 0)  -->
<svg version="1.1" id="Layer_1" xmlns="http://www.w3.org/2000/svg" xmlns:xlink="http://www.w3.org/1999/xlink" x="0px" y="0px"
	 viewBox="-49 141 512 512" style="enable-background:new -49 141 512 512;" xml:space="preserve">
<path d="M153.026,238.198c87.704-29.809,182.967,17.124,212.777,104.828s-17.124,182.967-104.828,212.777
	C173.27,585.611,78.007,538.678,48.198,450.974S65.322,268.007,153.026,238.198 M147.344,221.482
	C50.563,254.376-1.413,359.874,31.482,456.656s138.392,148.757,235.174,115.863s148.757-138.392,115.863-235.174
	S244.126,188.587,147.344,221.482L147.344,221.482z"/>
<g>
	<path d="M59.329,317.472c43.922-81.556,145.643-112.065,227.199-68.142s112.065,145.643,68.142,227.199
		s-145.643,112.065-227.199,68.142S15.407,399.028,59.329,317.472 M43.785,309.1C-4.683,399.098,29.103,511.747,119.1,560.215
		s202.646,14.682,251.115-75.315s14.682-202.646-75.315-251.115S92.253,219.103,43.785,309.1L43.785,309.1z"/>
	<path style="fill:none;stroke:#000000;stroke-miterlimit:10;" d="M59.329,317.472c43.922-81.556,145.643-112.065,227.199-68.142
		s112.065,145.643,68.142,227.199s-145.643,112.065-227.199,68.142S15.407,399.028,59.329,317.472 M43.785,309.1
		C-4.683,399.098,29.103,511.747,119.1,560.215s202.646,14.682,251.115-75.315s14.682-202.646-75.315-251.115
		S92.253,219.103,43.785,309.1L43.785,309.1z"/>
</g>
<path d="M268,211.621"/>
<circle style="fill:#FFFAFA;" cx="218.061" cy="385.898" r="174.292"/>
<g>
	
		<rect x="95.436" y="368.156" transform="matrix(0.9452 -0.3264 0.3264 0.9452 -117.638 92.918)" style="fill:none;" width="245.25" height="57.688"/>
	<path d="M115.481,454.003c-2.182,0.742-4.558-0.428-5.299-2.609L96.65,411.578c-0.741-2.182,0.429-4.557,2.61-5.298l11.59-3.939
		c0.272-0.093,20.225-6.95,28.358,16.98c8.133,23.929-11.865,30.65-12.138,30.743L115.481,454.003z M116.792,444.659l7.568-2.571
		c0.204-0.069,3.249-1.181,5.645-4.2c3.097-3.867,3.475-9.243,1.228-15.855c-2.294-6.75-5.938-10.759-10.954-11.868
		c-3.625-0.821-6.648,0.13-6.717,0.153l-7.566,2.572L116.792,444.659z"/>
	<path d="M181.286,427.227c0.742,2.182-0.428,4.557-2.678,5.321l-21.816,7.415c-2.25,0.765-4.625-0.405-5.367-2.587l-13.531-39.815
		c-0.742-2.182,0.428-4.557,2.678-5.321l21.816-7.415c2.25-0.765,4.625,0.405,5.367,2.587c0.764,2.25-0.406,4.625-2.656,5.39
		l-17.861,6.071l4.055,11.931l13.908-4.727c2.182-0.742,4.557,0.429,5.298,2.61s-0.429,4.557-2.61,5.298l-13.907,4.728l4.055,11.931
		l17.862-6.071C178.147,423.807,180.521,424.977,181.286,427.227z"/>
	<path d="M225.701,410.458c0.367,0.407,0.619,0.93,0.781,1.407c0.695,2.045-0.223,4.487-2.609,5.298
		c-1.568,0.533-3.393,0.088-4.539-1.271l-5.525-6.411l-18.476,6.279l-0.474,8.451c-0.081,1.776-1.256,3.24-2.824,3.773
		c-2.318,0.788-4.626-0.634-5.298-2.61c-0.186-0.546-0.279-1.046-0.237-1.593l2.376-45.146c0.104-1.708,1.256-3.24,2.893-3.797
		c1.567-0.533,3.415-0.021,4.539,1.271L225.701,410.458z M207.917,402.66l-11.167-13.164l-0.9,17.266L207.917,402.66z"/>
	<path d="M237.299,412.6c-2.25,0.765-4.625-0.405-5.365-2.587L218.4,370.198c-0.74-2.182,0.43-4.557,2.678-5.321
		c2.182-0.742,4.559,0.428,5.299,2.609l12.166,35.793l13.906-4.727c2.184-0.742,4.625,0.405,5.391,2.655
		c0.74,2.182-0.496,4.579-2.678,5.321L237.299,412.6z"/>
	<path d="M293.15,389.206c0.742,2.182-0.428,4.557-2.678,5.321l-21.816,7.415c-2.25,0.765-4.625-0.405-5.367-2.587l-13.531-39.815
		c-0.742-2.182,0.428-4.557,2.68-5.321l21.816-7.415c2.248-0.765,4.623,0.405,5.365,2.587c0.764,2.25-0.406,4.625-2.654,5.39
		l-17.863,6.071l4.055,11.931l13.908-4.727c2.182-0.742,4.557,0.429,5.299,2.61s-0.428,4.557-2.611,5.298l-13.908,4.728
		l4.055,11.931l17.863-6.071C290.012,385.786,292.387,386.956,293.15,389.206z"/>
	<path d="M328.086,374.975c0.641,0.543,1.076,1.155,1.33,1.905c0.441,1.296,0.199,2.822-0.771,3.989
		c-0.477,0.618-1.156,1.077-1.838,1.309c-1.363,0.464-2.891,0.223-4.035-0.682l-13.566-11.055l-6.682,2.271l4.055,11.931
		c0.742,2.182-0.498,4.58-2.678,5.321c-2.184,0.741-4.559-0.429-5.299-2.61l-13.533-39.814c-0.74-2.182,0.43-4.557,2.611-5.299
		l10.84-3.684c0.408-0.14,4.045-1.3,8.42-0.733c6.223,0.852,10.822,4.765,13,11.173c0.139,0.409,1.322,4.113,0.732,8.421
		c-0.48,3.281-1.809,6.09-3.867,8.312L328.086,374.975z M299.812,364.735l6.816-2.317c3.408-1.158,5.197-3.06,5.658-5.954
		c0.396-2.416-0.277-4.62-0.324-4.757c-1.158-3.409-3.127-5.174-6.158-5.588c-2.393-0.328-4.574,0.414-4.574,0.414l-6.818,2.317
		L299.812,364.735z"/>
</g>
</svg>
