<?xml version="1.0" encoding="iso-8859-1"?>
<!-- Generator: Adobe Illustrator 21.1.0, SVG Export Plug-In . SVG Version: 6.00 Build 0)  -->
<svg version="1.1" id="Layer_1" xmlns="http://www.w3.org/2000/svg" xmlns:xlink="http://www.w3.org/1999/xlink" x="0px" y="0px"
	 viewBox="0 0 560 560" style="enable-background:new 0 0 560 560;" xml:space="preserve">
<g>
	<g>
		<path d="M486.634,422.613v-64.257c7.884,0,14.301-6.178,14.301-13.769s-6.416-13.769-14.301-13.769h-99.757
			c0.114-0.372,0.262-0.725,0.343-1.111c0.915-4.448-0.591-8.927-4.033-11.989c-3.837-3.415-6.288-7.105-7.289-10.965l-0.901-3.474
			h-7.536v-2.69l12.904-12.425c1.864-1.795,1.864-4.695,0-6.49c-1.864-1.795-4.877-1.795-6.74,0l-6.164,5.935v-11.869v-0.652
			c8.199-2.052,14.301-9.175,14.301-17.707v-9.18h-14.301V234.43h-23.835v22.949c0,8.532,6.102,15.656,14.301,17.707v0.652v27.539
			h-7.536l-0.901,3.474c-1.001,3.86-3.456,7.55-7.289,10.965c-3.442,3.061-4.953,7.546-4.033,11.984
			c0.081,0.386,0.229,0.744,0.343,1.115H229.22c-7.884,0-14.301,6.178-14.301,13.769s6.416,13.769,14.301,13.769v64.257
			c0,41.744-13.586,66.415-13.724,66.653c-0.796,1.427-0.763,3.153,0.1,4.535c0.858,1.391,2.407,2.249,4.09,2.249
			c37.702,0,38.135-70.44,38.135-73.437v-15.996c0-20.943,14.658-39.426,35.647-44.934l12.666-3.328h103.59l12.666,3.328
			c20.989,5.508,35.647,23.991,35.647,44.934v15.996c0,2.997,0.434,73.437,38.135,73.437c1.683,0,3.242-0.858,4.1-2.244
			c0.858-1.395,0.891-3.121,0.086-4.539C500.215,489.023,486.634,464.564,486.634,422.613z M372.228,257.38
			c0,3.392-1.921,6.361-4.767,7.945v-7.945H372.228z M353.16,257.38V243.61h4.767v4.59v17.125
			C355.081,263.741,353.16,260.771,353.16,257.38z"/>
	</g>
	<g>
	</g>
	<g>
	</g>
	<g>
	</g>
	<g>
	</g>
	<g>
	</g>
	<g>
	</g>
	<g>
	</g>
	<g>
	</g>
	<g>
	</g>
	<g>
	</g>
	<g>
	</g>
	<g>
	</g>
	<g>
	</g>
	<g>
	</g>
	<g>
	</g>
</g>
<path style="fill:#FFFFFF;" d="M430.341,329.906H248.556c-6.6,0-12-5.4-12-12v-83.552c0-6.6,5.4-12,12-12h181.785
	c6.6,0,12,5.4,12,12v83.552C442.341,324.506,436.941,329.906,430.341,329.906z"/>
<g>
	<g>
		<g id="cash-register-cashire-retail-machine_2_">
			<path style="fill:#F8CF26;" d="M247.462,323.518c0,3.427,3.465,6.215,7.723,6.215h139.011c4.258,0,7.723-2.789,7.723-6.215
				v-16.575H247.462V323.518z M324.69,311.087c4.258,0,7.723,2.789,7.723,6.215c0,3.427-3.465,6.216-7.723,6.216
				c-4.257,0-7.723-2.789-7.723-6.216C316.967,313.876,320.432,311.087,324.69,311.087z"/>
			<path style="fill:#F8CF26;" d="M301.522,242.718c0-1.144-1.153-2.072-2.574-2.072v4.144
				C300.368,244.789,301.522,243.861,301.522,242.718z"/>
			<ellipse style="fill:#F8CF26;" cx="324.69" cy="317.303" rx="2.574" ry="2.072"/>
			<path style="fill:#F78B28;" d="M293.799,212.921l-1.423,0.572c-0.723,0.292-1.578,0.292-2.304,0l-3.996-1.608l-3.998,1.608
				c-0.723,0.292-1.578,0.292-2.304,0l-3.996-1.608l-3.998,1.608c-0.723,0.292-1.578,0.292-2.304,0l-1.421-0.572v31.868h25.743
				L293.799,212.921L293.799,212.921z"/>
			<rect x="304.096" y="290.369" style="fill:#F8CF26;" width="7.723" height="4.144"/>
			<rect x="342.71" y="290.369" style="fill:#F8CF26;" width="5.149" height="4.144"/>
			<rect x="304.096" y="273.795" style="fill:#F8CF26;" width="7.723" height="4.144"/>
			<rect x="342.71" y="273.795" style="fill:#F8CF26;" width="5.149" height="4.144"/>
			<rect x="363.305" y="290.369" style="fill:#F8CF26;" width="5.149" height="4.144"/>
			<rect x="363.305" y="273.795" style="fill:#F8CF26;" width="5.149" height="4.144"/>
			<rect x="280.927" y="273.795" style="fill:#F8CF26;" width="7.723" height="4.144"/>
			<rect x="280.927" y="257.22" style="fill:#F8CF26;" width="7.723" height="4.144"/>
			<rect x="257.759" y="273.795" style="fill:#F8CF26;" width="7.723" height="4.144"/>
			<rect x="257.759" y="257.22" style="fill:#F8CF26;" width="7.723" height="4.144"/>
			<rect x="383.899" y="290.369" style="fill:#F8CF26;" width="5.149" height="4.144"/>
			<rect x="280.927" y="290.369" style="fill:#F8CF26;" width="7.723" height="4.144"/>
			<path style="fill:#F8CF26;" d="M262.907,244.789v-4.144c-1.421,0-2.574,0.928-2.574,2.072S261.486,244.789,262.907,244.789z"/>
			<rect x="257.759" y="290.369" style="fill:#F8CF26;" width="7.723" height="4.144"/>
			<rect x="304.096" y="257.22" style="fill:#F8CF26;" width="7.723" height="4.144"/>
			<path style="fill:#3ADDBE;" d="M399.345,205.426h-51.486c-1.421,0-2.574,0.928-2.574,2.072v8.287
				c0,1.144,1.153,2.072,2.574,2.072h51.486c1.421,0,2.574-0.928,2.574-2.072v-8.288
				C401.919,206.354,400.765,205.426,399.345,205.426z"/>
			<rect x="340.136" y="240.646" style="fill:#3ADDBE;" width="51.486" height="12.431"/>
			<rect x="383.899" y="273.795" style="fill:#F8CF26;" width="5.149" height="4.144"/>
			<path style="fill:#F8CF26;" d="M298.947,236.502c4.258,0,7.723,2.789,7.723,6.216s-3.465,6.216-7.723,6.216h-2.574h-30.892
				h-2.574c-4.258,0-7.723-2.789-7.723-6.216s3.465-6.216,7.723-6.216v-4.144h-15.446V302.8h154.457v-70.441H298.947V236.502z
				 M270.63,296.585c0,1.146-1.15,2.072-2.574,2.072h-12.871c-1.423,0-2.574-0.926-2.574-2.072v-8.287
				c0-1.146,1.151-2.072,2.574-2.072h12.871c1.423,0,2.574,0.926,2.574,2.072V296.585z M270.63,280.01
				c0,1.146-1.15,2.072-2.574,2.072h-12.871c-1.423,0-2.574-0.926-2.574-2.072v-8.287c0-1.146,1.151-2.072,2.574-2.072h12.871
				c1.423,0,2.574,0.926,2.574,2.072V280.01z M270.63,263.436c0,1.146-1.15,2.072-2.574,2.072h-12.871
				c-1.423,0-2.574-0.926-2.574-2.072v-8.287c0-1.146,1.151-2.072,2.574-2.072h12.871c1.423,0,2.574,0.926,2.574,2.072V263.436z
				 M293.799,296.585c0,1.146-1.15,2.072-2.574,2.072h-12.871c-1.423,0-2.574-0.926-2.574-2.072v-8.287
				c0-1.146,1.151-2.072,2.574-2.072h12.871c1.423,0,2.574,0.926,2.574,2.072V296.585z M293.799,280.01
				c0,1.146-1.15,2.072-2.574,2.072h-12.871c-1.423,0-2.574-0.926-2.574-2.072v-8.287c0-1.146,1.151-2.072,2.574-2.072h12.871
				c1.423,0,2.574,0.926,2.574,2.072V280.01z M293.799,263.436c0,1.146-1.15,2.072-2.574,2.072h-12.871
				c-1.423,0-2.574-0.926-2.574-2.072v-8.287c0-1.146,1.151-2.072,2.574-2.072h12.871c1.423,0,2.574,0.926,2.574,2.072V263.436z
				 M316.967,296.585c0,1.146-1.151,2.072-2.574,2.072h-12.871c-1.423,0-2.574-0.926-2.574-2.072v-8.287
				c0-1.146,1.151-2.072,2.574-2.072h12.871c1.423,0,2.574,0.926,2.574,2.072V296.585z M316.967,280.01
				c0,1.146-1.151,2.072-2.574,2.072h-12.871c-1.423,0-2.574-0.926-2.574-2.072v-8.287c0-1.146,1.151-2.072,2.574-2.072h12.871
				c1.423,0,2.574,0.926,2.574,2.072V280.01z M353.008,296.585c0,1.146-1.151,2.072-2.574,2.072h-10.297
				c-1.423,0-2.574-0.926-2.574-2.072v-8.287c0-1.146,1.151-2.072,2.574-2.072h10.297c1.423,0,2.574,0.926,2.574,2.072V296.585z
				 M353.008,280.01c0,1.146-1.151,2.072-2.574,2.072h-10.297c-1.423,0-2.574-0.926-2.574-2.072v-8.287
				c0-1.146,1.151-2.072,2.574-2.072h10.297c1.423,0,2.574,0.926,2.574,2.072V280.01z M353.008,265.508h-15.446v-4.144h15.446
				V265.508z M373.602,296.585c0,1.146-1.151,2.072-2.574,2.072H360.73c-1.423,0-2.574-0.926-2.574-2.072v-8.287
				c0-1.146,1.15-2.072,2.574-2.072h10.297c1.423,0,2.574,0.926,2.574,2.072V296.585z M373.602,280.01
				c0,1.146-1.151,2.072-2.574,2.072H360.73c-1.423,0-2.574-0.926-2.574-2.072v-8.287c0-1.146,1.15-2.072,2.574-2.072h10.297
				c1.423,0,2.574,0.926,2.574,2.072V280.01z M373.602,265.508h-15.446v-4.144h15.446V265.508L373.602,265.508z M394.196,296.585
				c0,1.146-1.151,2.072-2.574,2.072h-10.297c-1.423,0-2.574-0.926-2.574-2.072v-8.287c0-1.146,1.151-2.072,2.574-2.072h10.297
				c1.423,0,2.574,0.926,2.574,2.072V296.585z M394.196,280.01c0,1.146-1.151,2.072-2.574,2.072h-10.297
				c-1.423,0-2.574-0.926-2.574-2.072v-8.287c0-1.146,1.151-2.072,2.574-2.072h10.297c1.423,0,2.574,0.926,2.574,2.072V280.01z
				 M394.196,265.508H378.75v-4.144h15.446V265.508z M334.987,238.574c0-1.146,1.151-2.072,2.574-2.072h56.634
				c1.423,0,2.574,0.926,2.574,2.072v16.575c0,1.146-1.151,2.072-2.574,2.072h-56.634c-1.423,0-2.574-0.926-2.574-2.072V238.574z
				 M316.967,255.149v8.287c0,1.146-1.151,2.072-2.574,2.072h-12.871c-1.423,0-2.574-0.926-2.574-2.072v-8.287
				c0-1.146,1.151-2.072,2.574-2.072h12.871C315.817,253.077,316.967,254.003,316.967,255.149z"/>
			<path d="M396.77,219.928c4.258,0,7.723-2.789,7.723-6.216v-8.287c0-3.427-3.465-6.216-7.723-6.216h-51.486
				c-4.258,0-7.723,2.789-7.723,6.216v8.287c0,3.427,3.465,6.216,7.723,6.216h23.169v6.216h-72.081v-18.646
				c0-0.719-0.464-1.384-1.223-1.763c-0.759-0.381-1.707-0.412-2.505-0.091l-3.996,1.61l-3.998-1.608
				c-0.723-0.292-1.578-0.292-2.304,0l-3.996,1.608l-3.998-1.608c-0.723-0.292-1.578-0.292-2.304,0l-3.996,1.608l-3.998-1.61
				c-0.798-0.319-1.745-0.29-2.505,0.091c-0.757,0.379-1.22,1.044-1.22,1.763v18.646h-18.02c-1.424,0-2.574,0.925-2.574,2.071V302.8
				v18.646c0,5.712,5.774,10.359,12.871,10.359h139.012c7.098,0,12.871-4.647,12.871-10.359V302.8v-74.585
				c0-1.146-1.151-2.072-2.574-2.072h-28.317v-6.216H396.77z M296.373,238.574c1.421,0,2.574,0.928,2.574,2.072
				c0,1.144-1.153,2.072-2.574,2.072V238.574z M265.481,210.849l1.423,0.572c0.723,0.292,1.578,0.292,2.304,0l3.996-1.608
				l3.998,1.608c0.723,0.292,1.578,0.292,2.304,0l3.996-1.608l3.998,1.608c0.723,0.292,1.578,0.292,2.304,0l1.421-0.572v31.868
				h-25.742V210.849z M257.759,240.646c0-1.144,1.153-2.072,2.574-2.072v4.144C258.912,242.718,257.759,241.789,257.759,240.646z
				 M399.345,321.446c0,3.427-3.465,6.215-7.723,6.215H252.61c-4.258,0-7.723-2.789-7.723-6.215v-16.575h154.457L399.345,321.446
				L399.345,321.446z M399.345,300.728H244.887v-70.441h15.446v4.144c-4.258,0-7.723,2.789-7.723,6.216
				c0,3.427,3.465,6.216,7.723,6.216h2.574h30.891h2.574c4.258,0,7.723-2.789,7.723-6.216c0-3.427-3.465-6.216-7.723-6.216v-4.144
				h102.971V300.728z M342.71,213.713v-8.287c0-1.144,1.153-2.072,2.574-2.072h51.486c1.421,0,2.574,0.928,2.574,2.072v8.287
				c0,1.144-1.153,2.072-2.574,2.072h-51.486C343.863,215.784,342.71,214.856,342.71,213.713z"/>
			<path d="M334.987,255.149h56.634c1.423,0,2.574-0.926,2.574-2.072v-16.575c0-1.146-1.151-2.072-2.574-2.072h-56.634
				c-1.423,0-2.574,0.926-2.574,2.072v16.575C332.413,254.222,333.564,255.149,334.987,255.149z M337.562,238.574h51.486v12.431
				h-51.486V238.574z"/>
			<path d="M265.481,251.005H252.61c-1.423,0-2.574,0.926-2.574,2.072v8.287c0,1.146,1.15,2.072,2.574,2.072h12.871
				c1.423,0,2.574-0.926,2.574-2.072v-8.287C268.056,251.931,266.905,251.005,265.481,251.005z M262.907,259.292h-7.723v-4.144
				h7.723V259.292z"/>
			<path d="M288.65,251.005h-12.871c-1.423,0-2.574,0.926-2.574,2.072v8.287c0,1.146,1.151,2.072,2.574,2.072h12.871
				c1.423,0,2.574-0.926,2.574-2.072v-8.287C291.225,251.931,290.074,251.005,288.65,251.005z M286.076,259.292h-7.723v-4.144h7.723
				V259.292z"/>
			<path d="M296.373,253.077v8.287c0,1.146,1.15,2.072,2.574,2.072h12.871c1.423,0,2.574-0.926,2.574-2.072v-8.287
				c0-1.145-1.151-2.072-2.574-2.072h-12.871C297.524,251.005,296.373,251.931,296.373,253.077z M301.522,255.149h7.723v4.144
				h-7.723V255.149z"/>
			<path d="M265.481,267.58H252.61c-1.423,0-2.574,0.926-2.574,2.072v8.287c0,1.146,1.15,2.072,2.574,2.072h12.871
				c1.423,0,2.574-0.926,2.574-2.072v-8.288C268.056,268.506,266.905,267.58,265.481,267.58z M262.907,275.867h-7.723v-4.144h7.723
				V275.867z"/>
			<path d="M288.65,267.58h-12.871c-1.423,0-2.574,0.926-2.574,2.072v8.287c0,1.146,1.151,2.072,2.574,2.072h12.871
				c1.423,0,2.574-0.926,2.574-2.072v-8.288C291.225,268.506,290.074,267.58,288.65,267.58z M286.076,275.867h-7.723v-4.144h7.723
				V275.867z"/>
			<path d="M311.819,267.58h-12.871c-1.423,0-2.574,0.926-2.574,2.072v8.287c0,1.146,1.15,2.072,2.574,2.072h12.871
				c1.423,0,2.574-0.926,2.574-2.072v-8.288C314.393,268.506,313.242,267.58,311.819,267.58z M309.245,275.867h-7.723v-4.144h7.723
				V275.867z"/>
			<path d="M265.481,284.154H252.61c-1.423,0-2.574,0.926-2.574,2.072v8.287c0,1.146,1.15,2.072,2.574,2.072h12.871
				c1.423,0,2.574-0.926,2.574-2.072v-8.287C268.056,285.08,266.905,284.154,265.481,284.154z M262.907,292.441h-7.723v-4.144h7.723
				V292.441z"/>
			<path d="M288.65,284.154h-12.871c-1.423,0-2.574,0.926-2.574,2.072v8.287c0,1.146,1.151,2.072,2.574,2.072h12.871
				c1.423,0,2.574-0.926,2.574-2.072v-8.287C291.225,285.08,290.074,284.154,288.65,284.154z M286.076,292.441h-7.723v-4.144h7.723
				V292.441z"/>
			<path d="M311.819,284.154h-12.871c-1.423,0-2.574,0.926-2.574,2.072v8.287c0,1.146,1.15,2.072,2.574,2.072h12.871
				c1.423,0,2.574-0.926,2.574-2.072v-8.287C314.393,285.08,313.242,284.154,311.819,284.154z M309.245,292.441h-7.723v-4.144h7.723
				V292.441z"/>
			<path d="M347.859,267.58h-10.297c-1.423,0-2.574,0.926-2.574,2.072v8.287c0,1.146,1.151,2.072,2.574,2.072h10.297
				c1.423,0,2.574-0.926,2.574-2.072v-8.288C350.433,268.506,349.283,267.58,347.859,267.58z M345.284,275.867h-5.149v-4.144h5.149
				V275.867z"/>
			<path d="M368.453,267.58h-10.297c-1.423,0-2.574,0.926-2.574,2.072v8.287c0,1.146,1.151,2.072,2.574,2.072h10.297
				c1.423,0,2.574-0.926,2.574-2.072v-8.288C371.028,268.506,369.877,267.58,368.453,267.58z M365.879,275.867h-5.149v-4.144h5.149
				V275.867z"/>
			<path d="M389.048,267.58h-10.297c-1.423,0-2.574,0.926-2.574,2.072v8.287c0,1.146,1.151,2.072,2.574,2.072h10.297
				c1.423,0,2.574-0.926,2.574-2.072v-8.288C391.622,268.506,390.472,267.58,389.048,267.58z M386.474,275.867h-5.149v-4.144h5.149
				V275.867z"/>
			<path d="M347.859,284.154h-10.297c-1.423,0-2.574,0.926-2.574,2.072v8.287c0,1.146,1.151,2.072,2.574,2.072h10.297
				c1.423,0,2.574-0.926,2.574-2.072v-8.287C350.433,285.08,349.283,284.154,347.859,284.154z M345.284,292.441h-5.149v-4.144h5.149
				V292.441z"/>
			<path d="M368.453,284.154h-10.297c-1.423,0-2.574,0.926-2.574,2.072v8.287c0,1.146,1.151,2.072,2.574,2.072h10.297
				c1.423,0,2.574-0.926,2.574-2.072v-8.287C371.028,285.08,369.877,284.154,368.453,284.154z M365.879,292.441h-5.149v-4.144h5.149
				V292.441z"/>
			<path d="M389.048,284.154h-10.297c-1.423,0-2.574,0.926-2.574,2.072v8.287c0,1.146,1.151,2.072,2.574,2.072h10.297
				c1.423,0,2.574-0.926,2.574-2.072v-8.287C391.622,285.08,390.472,284.154,389.048,284.154z M386.474,292.441h-5.149v-4.144h5.149
				V292.441z"/>
			<rect x="334.987" y="259.292" width="15.446" height="4.144"/>
			<rect x="355.582" y="259.292" width="15.446" height="4.144"/>
			<rect x="376.176" y="259.292" width="15.446" height="4.144"/>
			<path d="M322.116,321.446c4.258,0,7.723-2.789,7.723-6.215c0-3.427-3.465-6.216-7.723-6.216c-4.258,0-7.723,2.789-7.723,6.216
				C314.393,318.658,317.858,321.446,322.116,321.446z M322.116,313.159c1.421,0,2.574,0.928,2.574,2.072s-1.153,2.072-2.574,2.072
				c-1.421,0-2.574-0.928-2.574-2.072S320.695,313.159,322.116,313.159z"/>
		</g>
		<g id="Layer_1_1_">
		</g>
	</g>
	<g>
	</g>
	<g>
	</g>
	<g>
	</g>
	<g>
	</g>
	<g>
	</g>
	<g>
	</g>
	<g>
	</g>
	<g>
	</g>
	<g>
	</g>
	<g>
	</g>
	<g>
	</g>
	<g>
	</g>
	<g>
	</g>
	<g>
	</g>
	<g>
	</g>
</g>
<g>
	<path style="fill:#F2F2F2;" d="M436.01,324.691h-1.717c-1.618,0-2.928-1.171-2.928-2.616V270.77c0-1.445,1.31-2.617,2.928-2.617
		h41.073c1.618,0,2.93,1.172,2.93,2.617v1.585v49.72c0,1.445-1.312,2.616-2.93,2.616L436.01,324.691L436.01,324.691z
		 M473.029,315.625l-3.932-4.781l-3.933,4.781l3.933,4.781L473.029,315.625z M466.193,296.421l-11.362-13.814l-11.363,13.814
		l11.363,13.814L466.193,296.421z M444.496,277.218l-3.932-4.781l-3.933,4.781l3.933,4.781L444.496,277.218z"/>
	<path style="fill:#2BA5F7;" d="M482.94,274.972v51.305c0,1.445-1.31,2.616-2.928,2.616h-41.073c-1.618,0-2.928-1.171-2.928-2.616
		v-1.586h39.356c1.618,0,2.93-1.171,2.93-2.616v-49.72h1.715C481.629,272.354,482.94,273.526,482.94,274.972z"/>
	<g>
		<polygon style="fill:#F95428;" points="469.097,310.844 473.029,315.625 469.097,320.406 465.164,315.625 		"/>
		<polygon style="fill:#F95428;" points="454.831,282.608 466.193,296.421 454.831,310.235 443.467,296.421 		"/>
		<polygon style="fill:#F95428;" points="440.565,272.437 444.496,277.218 440.565,281.999 436.631,277.218 		"/>
	</g>
	<g>
		<path style="fill:#333333;" d="M467.155,295.79l-11.362-13.814c-0.225-0.274-0.582-0.435-0.962-0.435
			c-0.38,0-0.737,0.162-0.962,0.435l-11.362,13.814c-0.309,0.376-0.309,0.887,0,1.263l11.362,13.814
			c0.225,0.274,0.582,0.435,0.962,0.435c0.38,0,0.737-0.162,0.962-0.435l11.362-13.814
			C467.464,296.677,467.464,296.166,467.155,295.79z M454.83,308.434l-9.88-12.012l9.88-12.012l9.88,12.012L454.83,308.434z"/>
		<path style="fill:#333333;" d="M445.459,276.586l-3.932-4.781c-0.225-0.274-0.582-0.435-0.962-0.435s-0.737,0.162-0.962,0.435
			l-3.933,4.781c-0.309,0.376-0.309,0.888,0,1.264l3.933,4.781c0.225,0.274,0.582,0.435,0.962,0.435c0.38,0,0.737-0.162,0.962-0.435
			l3.932-4.781C445.768,277.474,445.768,276.962,445.459,276.586z M440.564,280.197l-2.451-2.979l2.451-2.979l2.451,2.979
			L440.564,280.197z"/>
		<path style="fill:#333333;" d="M470.059,310.213c-0.225-0.274-0.582-0.435-0.962-0.435s-0.737,0.162-0.962,0.435l-3.932,4.781
			c-0.309,0.376-0.309,0.887,0,1.263l3.932,4.781c0.225,0.274,0.582,0.435,0.962,0.435s0.737-0.162,0.962-0.435l3.933-4.781
			c0.309-0.376,0.309-0.888,0-1.263L470.059,310.213z M469.097,318.605l-2.451-2.979l2.451-2.979l2.451,2.979L469.097,318.605z"/>
		<path style="fill:#333333;" d="M480.011,271.287h-0.521v-0.518c0-2.031-1.85-3.684-4.124-3.684h-41.072
			c-2.274,0-4.124,1.653-4.124,3.684v51.305c0,2.031,1.85,3.684,4.124,3.684h0.521v0.519c0,2.031,1.849,3.683,4.123,3.683h41.073
			c2.273,0,4.123-1.652,4.123-3.683v-51.305C484.133,272.94,482.284,271.287,480.011,271.287z M432.559,322.074v-51.305
			c0-0.855,0.778-1.55,1.735-1.55h41.072c0.957,0,1.735,0.695,1.735,1.55v51.305c0,0.855-0.778,1.55-1.735,1.55h-41.072
			C433.338,323.624,432.559,322.929,432.559,322.074z M481.745,326.277c0,0.854-0.778,1.549-1.734,1.549h-41.073
			c-0.956,0-1.734-0.695-1.734-1.549v-0.519h38.162c2.274,0,4.124-1.653,4.124-3.684v-48.653h0.521c0.956,0,1.734,0.696,1.734,1.55
			L481.745,326.277L481.745,326.277z"/>
	</g>
	<g>
	</g>
	<g>
	</g>
	<g>
	</g>
	<g>
	</g>
	<g>
	</g>
	<g>
	</g>
	<g>
	</g>
	<g>
	</g>
	<g>
	</g>
	<g>
	</g>
	<g>
	</g>
	<g>
	</g>
	<g>
	</g>
	<g>
	</g>
	<g>
	</g>
</g>
<g>
	<path style="fill:#2197D8;" d="M459.984,274.33v52.793c0,1.487-1.311,2.692-2.929,2.692h-41.077c-1.618,0-2.929-1.205-2.929-2.692
		v-1.714h38.901c1.618,0,2.929-1.205,2.929-2.692v-51.08h0.311h1.865C458.673,271.636,459.984,272.843,459.984,274.33z"/>
	<path style="fill:#F2F2F2;" d="M431.499,300.689c2.562,2.355,6.717,2.355,9.281,0c1.28-1.178,1.922-2.721,1.922-4.264
		c0-1.544-0.642-3.089-1.922-4.265l-0.088-0.08l-9.281-8.531l-9.28,8.531l-0.088,0.08c-2.562,2.355-2.562,6.174,0,8.529
		c1.282,1.178,2.961,1.767,4.639,1.767c1.68,0,3.36-0.588,4.641-1.767l0.088-0.08L431.499,300.689z M445.708,317.734l0.037-0.034
		l0.038,0.034c1.08,0.992,2.832,0.992,3.913,0c0.54-0.498,0.809-1.148,0.809-1.799s-0.269-1.301-0.809-1.797l-0.038-0.034
		l-3.913-3.596l-3.913,3.596l-0.037,0.034c-1.08,0.992-1.08,2.603,0,3.596c0.54,0.496,1.249,0.744,1.957,0.744
		C444.46,318.478,445.168,318.23,445.708,317.734z M417.117,278.591c1.08,0.992,2.832,0.992,3.913,0
		c0.54-0.498,0.809-1.148,0.809-1.799c0-0.651-0.269-1.301-0.809-1.798l-0.038-0.035l-3.913-3.596l-3.913,3.596l-0.037,0.035
		c-1.08,0.992-1.08,2.603,0,3.596c0.54,0.496,1.249,0.744,1.957,0.744c0.707,0,1.416-0.247,1.956-0.744l0.037-0.035L417.117,278.591
		z M454.88,271.636v51.08c0,1.487-1.311,2.692-2.929,2.692H413.05h-2.176c-1.618,0-2.93-1.205-2.93-2.692v-52.792
		c0-1.487,1.312-2.693,2.93-2.693h41.077c1.618,0,2.929,1.206,2.929,2.693V271.636L454.88,271.636z"/>
	<g>
		<path style="fill:#4D4D4D;" d="M449.696,314.138c0.54,0.496,0.809,1.146,0.809,1.797s-0.269,1.301-0.809,1.799
			c-1.081,0.992-2.833,0.992-3.913,0l-0.038-0.034l-0.037,0.034c-0.54,0.496-1.249,0.744-1.956,0.744
			c-0.709,0-1.417-0.247-1.957-0.744c-1.08-0.994-1.08-2.604,0-3.596l0.037-0.034l3.913-3.596l3.913,3.596L449.696,314.138z"/>
		<path style="fill:#4D4D4D;" d="M440.781,292.16c1.28,1.177,1.922,2.721,1.922,4.265c0,1.543-0.642,3.086-1.922,4.264
			c-2.564,2.355-6.719,2.355-9.281,0l-0.088-0.08l-0.088,0.08c-1.28,1.178-2.961,1.767-4.641,1.767
			c-1.679,0-3.357-0.588-4.639-1.767c-2.562-2.355-2.562-6.174,0-8.529l0.088-0.08l9.28-8.531l9.281,8.531L440.781,292.16z"/>
		<path style="fill:#4D4D4D;" d="M421.03,274.994c0.54,0.496,0.809,1.146,0.809,1.798s-0.269,1.301-0.809,1.799
			c-1.081,0.992-2.833,0.992-3.913,0l-0.038-0.035l-0.037,0.035c-0.54,0.496-1.249,0.744-1.956,0.744
			c-0.709,0-1.417-0.247-1.957-0.744c-1.08-0.994-1.08-2.604,0-3.596l0.037-0.035l3.913-3.596l3.913,3.596L421.03,274.994z"/>
	</g>
	<g>
		<path style="fill:#333333;" d="M457.055,270.539h-0.981v-0.615c0-2.09-1.85-3.791-4.124-3.791h-41.076
			c-2.274,0-4.124,1.7-4.124,3.79v52.793c0,2.09,1.85,3.79,4.124,3.79h0.981v0.616c0,2.09,1.85,3.79,4.123,3.79h41.077
			c2.274,0,4.123-1.7,4.123-3.79V274.33C461.178,272.239,459.329,270.539,457.055,270.539z M409.139,322.716v-52.793
			c0-0.879,0.778-1.595,1.735-1.595h41.076c0.957,0,1.735,0.715,1.735,1.595v52.793c0,0.879-0.778,1.595-1.735,1.595h-41.076
			C409.917,324.311,409.139,323.596,409.139,322.716z M458.789,327.123c0,0.879-0.778,1.594-1.734,1.594h-41.077
			c-0.956,0-1.734-0.715-1.734-1.594v-0.616h37.707c2.274,0,4.124-1.7,4.124-3.79v-49.982h0.981c0.956,0,1.734,0.716,1.734,1.595
			L458.789,327.123L458.789,327.123L458.789,327.123z"/>
		<path style="fill:#333333;" d="M436.734,307.993h-4.04v-5.183c2.901,1.319,6.518,0.872,8.931-1.345
			c3.024-2.78,3.024-7.302,0-10.082l-9.368-8.61c-0.224-0.206-0.528-0.322-0.845-0.322s-0.621,0.116-0.845,0.322l-9.368,8.61
			c-1.465,1.346-2.272,3.137-2.272,5.041c0,1.904,0.807,3.695,2.272,5.041c1.465,1.346,3.413,2.088,5.485,2.088
			c1.283,0,2.518-0.285,3.621-0.822v5.261h-4.04c-0.66,0-1.194,0.492-1.194,1.098s0.535,1.098,1.194,1.098h10.468
			c0.66,0,1.194-0.492,1.194-1.098S437.394,307.993,436.734,307.993z M422.889,299.912c-1.014-0.932-1.572-2.171-1.572-3.489
			s0.558-2.557,1.572-3.489l8.523-7.834l8.523,7.834c2.093,1.924,2.093,5.053,0,6.977c-2.093,1.924-5.498,1.924-7.591,0l-0.088-0.08
			c-0.467-0.429-1.223-0.429-1.689,0l-0.088,0.08c-1.014,0.932-2.362,1.445-3.796,1.445S423.903,300.844,422.889,299.912z"/>
		<path style="fill:#333333;" d="M420.517,282.133c0-0.606-0.535-1.098-1.194-1.098h-1.013v-0.672
			c1.25,0.224,2.596-0.108,3.563-0.996c1.544-1.42,1.544-3.729,0-5.149l-3.95-3.631c-0.224-0.206-0.528-0.322-0.845-0.322
			c-0.317,0-0.621,0.116-0.845,0.322l-3.95,3.631c-0.748,0.688-1.16,1.602-1.16,2.575c0,0.973,0.412,1.887,1.16,2.574
			c0.748,0.688,1.743,1.066,2.801,1.066c0.285,0,0.564-0.029,0.836-0.082v0.684h-1.013c-0.66,0-1.194,0.492-1.194,1.098
			s0.535,1.098,1.194,1.098h4.414C419.983,283.231,420.517,282.739,420.517,282.133z M413.974,277.814
			c-0.297-0.273-0.461-0.636-0.461-1.022s0.164-0.749,0.461-1.022l3.105-2.854l3.106,2.854c0.613,0.564,0.613,1.48,0,2.044
			c-0.613,0.564-1.611,0.564-2.225-0.001l-0.037-0.034c-0.466-0.428-1.221-0.428-1.688,0l-0.038,0.035
			c-0.297,0.273-0.692,0.423-1.112,0.423C414.666,278.237,414.271,278.087,413.974,277.814z"/>
		<path style="fill:#333333;" d="M446.59,309.731c-0.224-0.206-0.528-0.322-0.845-0.322s-0.621,0.116-0.845,0.322l-3.95,3.63
			c-1.545,1.42-1.545,3.729,0,5.149c0.748,0.688,1.743,1.066,2.801,1.066c0.285,0,0.564-0.029,0.836-0.082v0.684h-1.013
			c-0.66,0-1.194,0.492-1.194,1.098s0.535,1.098,1.194,1.098h4.414c0.66,0,1.194-0.492,1.194-1.098s-0.535-1.098-1.194-1.098h-1.013
			v-0.672c1.251,0.224,2.596-0.108,3.563-0.996c1.544-1.42,1.544-3.729-0.001-5.15L446.59,309.731z M448.851,316.958
			c-0.613,0.564-1.611,0.564-2.224,0l-0.037-0.034c-0.467-0.429-1.223-0.429-1.689,0l-0.037,0.034
			c-0.297,0.273-0.692,0.423-1.112,0.423c-0.42,0-0.815-0.15-1.112-0.423c-0.613-0.564-0.613-1.48-0.001-2.043l3.106-2.855
			l3.105,2.854C449.464,315.477,449.464,316.394,448.851,316.958z"/>
	</g>
	<g>
	</g>
	<g>
	</g>
	<g>
	</g>
	<g>
	</g>
	<g>
	</g>
	<g>
	</g>
	<g>
	</g>
	<g>
	</g>
	<g>
	</g>
	<g>
	</g>
	<g>
	</g>
	<g>
	</g>
	<g>
	</g>
	<g>
	</g>
	<g>
	</g>
</g>
<image style="overflow:visible;" width="48" height="48" xlink:href="../../../../../Downloads/poker.png"  transform="matrix(0.75 0 0 0.75 425.4575 302.9418)">
</image>
<rect x="186.979" y="95.331" transform="matrix(0.7113 -0.7029 0.7029 0.7113 -34.0217 183.8642)" style="fill:#FBB03B;stroke:#000000;stroke-width:4;" width="39.669" height="76.033"/>
<polygon style="fill:#FBB03B;stroke:#000000;stroke-width:4;" points="260.113,186.739 252.774,133.348 206.814,178.764 "/>
<line style="fill:none;stroke:#FBB03B;stroke-width:7;" x1="216.499" y1="167.821" x2="240.91" y2="143.269"/>
<g>
	<rect x="84.333" y="58.328" style="fill:none;" width="155.567" height="26.677"/>
	<path d="M123.891,77.435c0.495,0.924,0.132,2.08-0.792,2.607c-1.684,0.891-3.564,1.386-5.512,1.386
		c-6.37,0-11.552-5.182-11.552-11.552c0-6.37,5.182-11.552,11.552-11.552c1.947,0,3.828,0.495,5.512,1.386
		c0.924,0.528,1.287,1.684,0.792,2.607c-0.528,0.957-1.683,1.287-2.641,0.792c-1.089-0.627-2.376-0.924-3.663-0.924
		c-4.225,0-7.69,3.433-7.69,7.69c0,4.258,3.466,7.69,7.69,7.69c1.287,0,2.574-0.297,3.663-0.924
		C122.208,76.147,123.362,76.478,123.891,77.435z"/>
	<path d="M130.62,60.239v19.275c0,1.056-0.858,1.914-1.947,1.914c-1.056,0-1.914-0.858-1.914-1.914V60.239
		c0-1.056,0.858-1.915,1.914-1.915C129.762,58.325,130.62,59.183,130.62,60.239z"/>
	<path d="M135.173,63.177c-1.056,0-1.914-0.858-1.914-1.947c0-1.056,0.858-1.915,1.914-1.915s1.947,0.858,1.947,1.915
		C137.121,62.318,136.229,63.177,135.173,63.177z M133.259,79.514V67.962c0-1.056,0.858-1.947,1.914-1.947s1.947,0.891,1.947,1.947
		v11.552c0,1.056-0.891,1.914-1.947,1.914S133.259,80.57,133.259,79.514z"/>
	<path d="M139.76,73.738c0-4.258,3.234-7.723,7.228-7.723c1.023,0,2.013,0.231,2.97,0.693c0.693,0.297,1.089,0.99,1.089,1.716
		c0,0.297-0.066,0.561-0.198,0.825c-0.33,0.693-0.99,1.122-1.716,1.122c-0.264,0-0.561-0.066-0.825-0.198
		c-0.429-0.198-0.858-0.297-1.32-0.297c-1.848,0-3.367,1.716-3.367,3.862c0,2.112,1.519,3.829,3.367,3.829
		c0.462,0,0.891-0.099,1.32-0.297c0.264-0.132,0.528-0.165,0.792-0.165c0.726,0,1.419,0.396,1.749,1.089
		c0.132,0.264,0.198,0.528,0.198,0.825c0,0.726-0.396,1.419-1.089,1.749c-0.957,0.429-1.947,0.66-2.97,0.66
		C142.994,81.428,139.76,77.963,139.76,73.738z"/>
	<path d="M165.633,78.128c0.429,0.429,0.561,0.891,0.561,1.386c0,0.495-0.198,0.99-0.561,1.353
		c-0.363,0.363-0.858,0.561-1.354,0.561s-0.99-0.198-1.353-0.561l-5.38-5.38v4.027c0,1.056-0.891,1.914-1.947,1.914
		s-1.914-0.858-1.914-1.914V60.239c0-1.056,0.858-1.915,1.914-1.915s1.947,0.858,1.947,1.915v11.717l5.38-5.38
		c0.363-0.363,0.858-0.528,1.353-0.528s0.958,0.165,1.354,0.528c0.363,0.396,0.561,0.891,0.561,1.386s-0.198,0.99-0.561,1.353
		l-4.423,4.423L165.633,78.128z"/>
	<path d="M195.598,71.989v7.525c0,1.056-0.891,1.914-1.947,1.914s-1.914-0.858-1.914-1.914v-7.525c0-0.198-0.066-0.792-0.33-1.32
		c-0.264-0.594-0.594-0.792-1.254-0.792s-1.023,0.198-1.287,0.792c-0.231,0.528-0.297,1.123-0.297,1.32v7.525
		c0,1.056-0.891,1.914-1.947,1.914s-1.915-0.858-1.915-1.914v-7.525c0-0.198-0.066-0.792-0.297-1.32
		c-0.297-0.561-0.627-0.792-1.287-0.792s-1.023,0.231-1.287,0.792c-0.231,0.528-0.297,1.123-0.297,1.32v7.525
		c0,1.056-0.858,1.914-1.947,1.914c-1.056,0-1.914-0.858-1.914-1.914V67.962c0-1.056,0.858-1.947,1.914-1.947
		c0.495,0,0.924,0.198,1.254,0.462c0.66-0.297,1.386-0.462,2.277-0.462c1.518,0,2.673,0.528,3.499,1.287
		c0.858-0.759,2.013-1.287,3.531-1.287C194.146,66.015,195.598,69.58,195.598,71.989z"/>
	<path d="M204.835,81.395c-2.013-0.099-3.762-0.957-4.951-2.442c-1.089-1.386-1.65-3.201-1.65-5.248c0-4.258,3.036-7.69,6.733-7.69
		c1.848,0,3.564,0.759,4.819,2.178c1.254,1.353,1.914,3.202,1.914,5.182c0,1.056-0.858,1.947-1.914,1.947h-7.492
		c0.33,1.056,1.056,2.178,2.739,2.245h0.198c0.495,0,1.419,0,2.244-0.594c0.33-0.198,0.693-0.297,1.056-0.297
		c0.627,0,1.254,0.297,1.617,0.858c0.231,0.297,0.33,0.66,0.33,1.023c0,0.627-0.33,1.288-0.891,1.65
		c-1.584,1.056-3.234,1.221-4.159,1.221C205.166,81.428,204.968,81.428,204.835,81.395z M207.443,71.461
		c-0.495-0.99-1.386-1.617-2.475-1.617c-0.924,0-1.782,0.66-2.311,1.617H207.443z"/>
	<path d="M218.2,60.239v13.499c0,1.056-0.891,1.914-1.947,1.914s-1.914-0.858-1.914-1.914V60.239c0-1.056,0.858-1.915,1.914-1.915
		S218.2,59.183,218.2,60.239z M218.2,79.514c0,1.056-0.891,1.914-1.947,1.914s-1.914-0.858-1.914-1.914
		c0-1.089,0.858-1.947,1.914-1.947S218.2,78.425,218.2,79.514z"/>
</g>
<g>
</g>
<g>
</g>
<g>
</g>
<g>
</g>
<g>
</g>
</svg>
