<?xml version="1.0" encoding="iso-8859-1"?>
<!-- Generator: Adobe Illustrator 21.1.0, SVG Export Plug-In . SVG Version: 6.00 Build 0)  -->
<svg version="1.1" id="Layer_1" xmlns="http://www.w3.org/2000/svg" xmlns:xlink="http://www.w3.org/1999/xlink" x="0px" y="0px"
	 viewBox="0 0 1200 600" style="enable-background:new 0 0 1200 600;" xml:space="preserve">
<g>
	<g>
		<path d="M925.589,445.379v-64.257c7.884,0,14.301-6.178,14.301-13.769c0-7.592-6.416-13.769-14.301-13.769h-99.757
			c0.114-0.372,0.262-0.725,0.343-1.111c0.915-4.448-0.591-8.927-4.033-11.989c-3.837-3.415-6.288-7.105-7.289-10.965l-0.901-3.474
			h-7.536v-2.69l12.904-12.425c1.864-1.795,1.864-4.695,0-6.49c-1.864-1.795-4.877-1.795-6.74,0l-6.164,5.935v-11.869v-0.652
			c8.199-2.052,14.301-9.175,14.301-17.707v-9.18h-14.301v-13.769h-23.835v22.949c0,8.532,6.102,15.656,14.301,17.707v0.652v27.539
			h-7.536l-0.901,3.474c-1.001,3.86-3.456,7.55-7.289,10.965c-3.442,3.061-4.953,7.546-4.033,11.984
			c0.081,0.386,0.229,0.744,0.343,1.115H668.175c-7.885,0-14.301,6.178-14.301,13.769c0,7.592,6.416,13.769,14.301,13.769v64.257
			c0,41.744-13.586,66.415-13.724,66.653c-0.796,1.427-0.763,3.153,0.1,4.535c0.858,1.391,2.407,2.249,4.09,2.249
			c37.702,0,38.135-70.44,38.135-73.437v-15.995c0-20.943,14.658-39.426,35.647-44.934l12.666-3.328h103.59l12.666,3.328
			c20.989,5.508,35.647,23.991,35.647,44.934v15.995c0,2.997,0.434,73.437,38.135,73.437c1.683,0,3.242-0.858,4.1-2.244
			c0.858-1.395,0.891-3.121,0.086-4.539C939.17,511.789,925.589,487.33,925.589,445.379z M811.183,280.146
			c0,3.392-1.921,6.361-4.767,7.945v-7.945H811.183z M792.115,280.146v-13.769h4.767v4.59v17.125
			C794.036,286.507,792.115,283.537,792.115,280.146z"/>
	</g>
	<g>
	</g>
	<g>
	</g>
	<g>
	</g>
	<g>
	</g>
	<g>
	</g>
	<g>
	</g>
	<g>
	</g>
	<g>
	</g>
	<g>
	</g>
	<g>
	</g>
	<g>
	</g>
	<g>
	</g>
	<g>
	</g>
	<g>
	</g>
	<g>
	</g>
</g>
<path style="fill:#FFFFFF;" d="M828.874,352.672H687.511c-6.6,0-12-5.4-12-12v-79.762c0-6.6,5.4-12,12-12h141.362
	c6.6,0,12,5.4,12,12v79.762C840.874,347.272,835.474,352.672,828.874,352.672z"/>
<g>
	<g>
		<g id="cash-register-cashire-retail-machine_2_">
			<path style="fill:#F8CF26;" d="M686.417,346.284c0,3.427,3.465,6.215,7.723,6.215h139.011c4.258,0,7.723-2.789,7.723-6.215
				V329.71H686.417V346.284z M763.646,333.853c4.258,0,7.723,2.789,7.723,6.215c0,3.427-3.465,6.216-7.723,6.216
				c-4.257,0-7.723-2.789-7.723-6.216C755.922,336.642,759.388,333.853,763.646,333.853z"/>
			<path style="fill:#F8CF26;" d="M740.477,265.484c0-1.144-1.153-2.072-2.574-2.072v4.144
				C739.323,267.555,740.477,266.627,740.477,265.484z"/>
			<ellipse style="fill:#F8CF26;" cx="763.646" cy="340.069" rx="2.574" ry="2.072"/>
			<path style="fill:#F78B28;" d="M732.754,235.687l-1.423,0.572c-0.723,0.292-1.578,0.292-2.304,0l-3.996-1.608l-3.998,1.608
				c-0.723,0.292-1.578,0.292-2.304,0l-3.995-1.608l-3.998,1.608c-0.723,0.292-1.578,0.292-2.304,0l-1.421-0.572v31.868h25.743
				L732.754,235.687L732.754,235.687z"/>
			<rect x="743.051" y="313.135" style="fill:#F8CF26;" width="7.723" height="4.144"/>
			<rect x="781.665" y="313.135" style="fill:#F8CF26;" width="5.149" height="4.144"/>
			<rect x="743.051" y="296.561" style="fill:#F8CF26;" width="7.723" height="4.144"/>
			<rect x="781.665" y="296.561" style="fill:#F8CF26;" width="5.149" height="4.144"/>
			<rect x="802.26" y="313.135" style="fill:#F8CF26;" width="5.149" height="4.144"/>
			<rect x="802.26" y="296.561" style="fill:#F8CF26;" width="5.149" height="4.144"/>
			<rect x="719.882" y="296.561" style="fill:#F8CF26;" width="7.723" height="4.144"/>
			<rect x="719.882" y="279.986" style="fill:#F8CF26;" width="7.723" height="4.144"/>
			<rect x="696.714" y="296.561" style="fill:#F8CF26;" width="7.723" height="4.144"/>
			<rect x="696.714" y="279.986" style="fill:#F8CF26;" width="7.723" height="4.144"/>
			<rect x="822.854" y="313.135" style="fill:#F8CF26;" width="5.149" height="4.144"/>
			<rect x="719.882" y="313.135" style="fill:#F8CF26;" width="7.723" height="4.144"/>
			<path style="fill:#F8CF26;" d="M701.863,267.555v-4.144c-1.421,0-2.574,0.928-2.574,2.072S700.441,267.555,701.863,267.555z"/>
			<rect x="696.714" y="313.135" style="fill:#F8CF26;" width="7.723" height="4.144"/>
			<rect x="743.051" y="279.986" style="fill:#F8CF26;" width="7.723" height="4.144"/>
			<path style="fill:#3ADDBE;" d="M838.3,228.192h-51.486c-1.421,0-2.574,0.928-2.574,2.072v8.287c0,1.144,1.153,2.072,2.574,2.072
				H838.3c1.421,0,2.574-0.928,2.574-2.072v-8.288C840.874,229.12,839.721,228.192,838.3,228.192z"/>
			<rect x="779.091" y="263.412" style="fill:#3ADDBE;" width="51.486" height="12.431"/>
			<rect x="822.854" y="296.561" style="fill:#F8CF26;" width="5.149" height="4.144"/>
			<path style="fill:#F8CF26;" d="M737.902,259.268c4.258,0,7.723,2.789,7.723,6.216s-3.465,6.216-7.723,6.216h-2.574h-30.891
				h-2.574c-4.258,0-7.723-2.789-7.723-6.216s3.465-6.216,7.723-6.216v-4.144h-15.446v70.441h154.457v-70.441H737.902V259.268z
				 M709.585,319.351c0,1.146-1.15,2.072-2.574,2.072h-12.871c-1.423,0-2.574-0.926-2.574-2.072v-8.287
				c0-1.146,1.15-2.072,2.574-2.072h12.871c1.423,0,2.574,0.926,2.574,2.072V319.351z M709.585,302.776
				c0,1.146-1.15,2.072-2.574,2.072h-12.871c-1.423,0-2.574-0.926-2.574-2.072v-8.287c0-1.146,1.15-2.072,2.574-2.072h12.871
				c1.423,0,2.574,0.926,2.574,2.072V302.776z M709.585,286.202c0,1.146-1.15,2.072-2.574,2.072h-12.871
				c-1.423,0-2.574-0.926-2.574-2.072v-8.287c0-1.146,1.15-2.072,2.574-2.072h12.871c1.423,0,2.574,0.926,2.574,2.072V286.202z
				 M732.754,319.351c0,1.146-1.151,2.072-2.574,2.072h-12.871c-1.423,0-2.574-0.926-2.574-2.072v-8.287
				c0-1.146,1.151-2.072,2.574-2.072h12.871c1.423,0,2.574,0.926,2.574,2.072V319.351z M732.754,302.776
				c0,1.146-1.151,2.072-2.574,2.072h-12.871c-1.423,0-2.574-0.926-2.574-2.072v-8.287c0-1.146,1.151-2.072,2.574-2.072h12.871
				c1.423,0,2.574,0.926,2.574,2.072V302.776z M732.754,286.202c0,1.146-1.151,2.072-2.574,2.072h-12.871
				c-1.423,0-2.574-0.926-2.574-2.072v-8.287c0-1.146,1.151-2.072,2.574-2.072h12.871c1.423,0,2.574,0.926,2.574,2.072V286.202z
				 M755.922,319.351c0,1.146-1.151,2.072-2.574,2.072h-12.871c-1.423,0-2.574-0.926-2.574-2.072v-8.287
				c0-1.146,1.151-2.072,2.574-2.072h12.871c1.423,0,2.574,0.926,2.574,2.072V319.351z M755.922,302.776
				c0,1.146-1.151,2.072-2.574,2.072h-12.871c-1.423,0-2.574-0.926-2.574-2.072v-8.287c0-1.146,1.151-2.072,2.574-2.072h12.871
				c1.423,0,2.574,0.926,2.574,2.072V302.776z M791.963,319.351c0,1.146-1.151,2.072-2.574,2.072h-10.297
				c-1.423,0-2.574-0.926-2.574-2.072v-8.287c0-1.146,1.151-2.072,2.574-2.072h10.297c1.423,0,2.574,0.926,2.574,2.072V319.351z
				 M791.963,302.776c0,1.146-1.151,2.072-2.574,2.072h-10.297c-1.423,0-2.574-0.926-2.574-2.072v-8.287
				c0-1.146,1.151-2.072,2.574-2.072h10.297c1.423,0,2.574,0.926,2.574,2.072V302.776z M791.963,288.274h-15.446v-4.144h15.446
				V288.274z M812.557,319.351c0,1.146-1.151,2.072-2.574,2.072h-10.297c-1.423,0-2.574-0.926-2.574-2.072v-8.287
				c0-1.146,1.15-2.072,2.574-2.072h10.297c1.423,0,2.574,0.926,2.574,2.072V319.351z M812.557,302.776
				c0,1.146-1.151,2.072-2.574,2.072h-10.297c-1.423,0-2.574-0.926-2.574-2.072v-8.287c0-1.146,1.15-2.072,2.574-2.072h10.297
				c1.423,0,2.574,0.926,2.574,2.072V302.776z M812.557,288.274h-15.446v-4.144h15.446V288.274L812.557,288.274z M833.151,319.351
				c0,1.146-1.151,2.072-2.574,2.072H820.28c-1.423,0-2.574-0.926-2.574-2.072v-8.287c0-1.146,1.151-2.072,2.574-2.072h10.297
				c1.423,0,2.574,0.926,2.574,2.072V319.351z M833.151,302.776c0,1.146-1.151,2.072-2.574,2.072H820.28
				c-1.423,0-2.574-0.926-2.574-2.072v-8.287c0-1.146,1.151-2.072,2.574-2.072h10.297c1.423,0,2.574,0.926,2.574,2.072V302.776z
				 M833.151,288.274h-15.446v-4.144h15.446V288.274z M773.943,261.34c0-1.146,1.151-2.072,2.574-2.072h56.634
				c1.423,0,2.574,0.926,2.574,2.072v16.575c0,1.146-1.151,2.072-2.574,2.072h-56.634c-1.423,0-2.574-0.926-2.574-2.072V261.34z
				 M755.922,277.915v8.287c0,1.146-1.151,2.072-2.574,2.072h-12.871c-1.423,0-2.574-0.926-2.574-2.072v-8.287
				c0-1.146,1.151-2.072,2.574-2.072h12.871C754.772,275.843,755.922,276.769,755.922,277.915z"/>
			<path d="M835.726,242.694c4.258,0,7.723-2.789,7.723-6.216v-8.287c0-3.427-3.465-6.216-7.723-6.216H784.24
				c-4.258,0-7.723,2.789-7.723,6.216v8.287c0,3.427,3.465,6.216,7.723,6.216h23.169v6.216h-72.081v-18.646
				c0-0.719-0.464-1.384-1.223-1.763c-0.759-0.381-1.707-0.412-2.505-0.091l-3.996,1.61l-3.998-1.608
				c-0.723-0.292-1.578-0.292-2.304,0l-3.996,1.608l-3.998-1.608c-0.723-0.292-1.578-0.292-2.304,0l-3.995,1.608l-3.998-1.61
				c-0.798-0.319-1.745-0.29-2.505,0.091c-0.757,0.379-1.22,1.044-1.22,1.763v18.646h-18.02c-1.424,0-2.574,0.925-2.574,2.071
				v74.585v18.646c0,5.712,5.774,10.359,12.871,10.359h139.012c7.098,0,12.871-4.647,12.871-10.359v-18.646v-74.585
				c0-1.146-1.151-2.072-2.574-2.072h-28.317v-6.216H835.726z M735.328,261.34c1.421,0,2.574,0.928,2.574,2.072
				s-1.153,2.072-2.574,2.072V261.34z M704.436,233.615l1.423,0.572c0.723,0.292,1.578,0.292,2.304,0l3.996-1.608l3.998,1.608
				c0.723,0.292,1.578,0.292,2.304,0l3.996-1.608l3.998,1.608c0.723,0.292,1.578,0.292,2.304,0l1.421-0.572v31.868h-25.742V233.615z
				 M696.714,263.412c0-1.144,1.153-2.072,2.574-2.072v4.144C697.867,265.484,696.714,264.555,696.714,263.412z M838.3,344.212
				c0,3.427-3.465,6.215-7.723,6.215H691.565c-4.258,0-7.723-2.789-7.723-6.215v-16.575h154.457L838.3,344.212L838.3,344.212z
				 M838.3,323.494H683.843v-70.441h15.446v4.144c-4.258,0-7.723,2.789-7.723,6.216s3.465,6.216,7.723,6.216h2.574h30.892h2.574
				c4.258,0,7.723-2.789,7.723-6.216s-3.465-6.216-7.723-6.216v-4.144H838.3V323.494z M781.665,236.479v-8.287
				c0-1.144,1.153-2.072,2.574-2.072h51.486c1.421,0,2.574,0.928,2.574,2.072v8.287c0,1.144-1.153,2.072-2.574,2.072H784.24
				C782.818,238.55,781.665,237.622,781.665,236.479z"/>
			<path d="M773.943,277.915h56.634c1.423,0,2.574-0.926,2.574-2.072v-16.575c0-1.146-1.151-2.072-2.574-2.072h-56.634
				c-1.423,0-2.574,0.926-2.574,2.072v16.575C771.368,276.988,772.519,277.915,773.943,277.915z M776.517,261.34h51.486v12.431
				h-51.486V261.34z"/>
			<path d="M704.436,273.771h-12.871c-1.423,0-2.574,0.926-2.574,2.072v8.287c0,1.146,1.151,2.072,2.574,2.072h12.871
				c1.423,0,2.574-0.926,2.574-2.072v-8.287C707.011,274.697,705.86,273.771,704.436,273.771z M701.863,282.058h-7.723v-4.144h7.723
				V282.058z"/>
			<path d="M727.605,273.771h-12.871c-1.423,0-2.574,0.926-2.574,2.072v8.287c0,1.146,1.151,2.072,2.574,2.072h12.871
				c1.423,0,2.574-0.926,2.574-2.072v-8.287C730.18,274.697,729.029,273.771,727.605,273.771z M725.031,282.058h-7.723v-4.144h7.723
				V282.058z"/>
			<path d="M735.328,275.843v8.287c0,1.146,1.151,2.072,2.574,2.072h12.871c1.423,0,2.574-0.926,2.574-2.072v-8.287
				c0-1.146-1.151-2.072-2.574-2.072h-12.871C736.479,273.771,735.328,274.697,735.328,275.843z M740.477,277.915h7.723v4.144
				h-7.723V277.915z"/>
			<path d="M704.436,290.346h-12.871c-1.423,0-2.574,0.926-2.574,2.072v8.287c0,1.146,1.151,2.072,2.574,2.072h12.871
				c1.423,0,2.574-0.926,2.574-2.072v-8.288C707.011,291.272,705.86,290.346,704.436,290.346z M701.863,298.633h-7.723v-4.144h7.723
				V298.633z"/>
			<path d="M727.605,290.346h-12.871c-1.423,0-2.574,0.926-2.574,2.072v8.287c0,1.146,1.151,2.072,2.574,2.072h12.871
				c1.423,0,2.574-0.926,2.574-2.072v-8.288C730.18,291.272,729.029,290.346,727.605,290.346z M725.031,298.633h-7.723v-4.144h7.723
				V298.633z"/>
			<path d="M750.774,290.346h-12.871c-1.423,0-2.574,0.926-2.574,2.072v8.287c0,1.146,1.151,2.072,2.574,2.072h12.871
				c1.423,0,2.574-0.926,2.574-2.072v-8.288C753.348,291.272,752.198,290.346,750.774,290.346z M748.2,298.633h-7.723v-4.144h7.723
				V298.633z"/>
			<path d="M704.436,306.92h-12.871c-1.423,0-2.574,0.926-2.574,2.072v8.287c0,1.146,1.151,2.072,2.574,2.072h12.871
				c1.423,0,2.574-0.926,2.574-2.072v-8.287C707.011,307.846,705.86,306.92,704.436,306.92z M701.863,315.207h-7.723v-4.144h7.723
				V315.207z"/>
			<path d="M727.605,306.92h-12.871c-1.423,0-2.574,0.926-2.574,2.072v8.287c0,1.146,1.151,2.072,2.574,2.072h12.871
				c1.423,0,2.574-0.926,2.574-2.072v-8.287C730.18,307.846,729.029,306.92,727.605,306.92z M725.031,315.207h-7.723v-4.144h7.723
				V315.207z"/>
			<path d="M750.774,306.92h-12.871c-1.423,0-2.574,0.926-2.574,2.072v8.287c0,1.146,1.151,2.072,2.574,2.072h12.871
				c1.423,0,2.574-0.926,2.574-2.072v-8.287C753.348,307.846,752.198,306.92,750.774,306.92z M748.2,315.207h-7.723v-4.144h7.723
				V315.207z"/>
			<path d="M786.814,290.346h-10.297c-1.423,0-2.574,0.926-2.574,2.072v8.287c0,1.146,1.151,2.072,2.574,2.072h10.297
				c1.423,0,2.574-0.926,2.574-2.072v-8.288C789.388,291.272,788.238,290.346,786.814,290.346z M784.24,298.633h-5.149v-4.144h5.149
				V298.633z"/>
			<path d="M807.408,290.346h-10.297c-1.423,0-2.574,0.926-2.574,2.072v8.287c0,1.146,1.151,2.072,2.574,2.072h10.297
				c1.423,0,2.574-0.926,2.574-2.072v-8.288C809.983,291.272,808.832,290.346,807.408,290.346z M804.834,298.633h-5.149v-4.144
				h5.149V298.633z"/>
			<path d="M828.003,290.346h-10.297c-1.423,0-2.574,0.926-2.574,2.072v8.287c0,1.146,1.151,2.072,2.574,2.072h10.297
				c1.423,0,2.574-0.926,2.574-2.072v-8.288C830.577,291.272,829.427,290.346,828.003,290.346z M825.429,298.633h-5.149v-4.144
				h5.149V298.633z"/>
			<path d="M786.814,306.92h-10.297c-1.423,0-2.574,0.926-2.574,2.072v8.287c0,1.146,1.151,2.072,2.574,2.072h10.297
				c1.423,0,2.574-0.926,2.574-2.072v-8.287C789.388,307.846,788.238,306.92,786.814,306.92z M784.24,315.207h-5.149v-4.144h5.149
				V315.207z"/>
			<path d="M807.408,306.92h-10.297c-1.423,0-2.574,0.926-2.574,2.072v8.287c0,1.146,1.151,2.072,2.574,2.072h10.297
				c1.423,0,2.574-0.926,2.574-2.072v-8.287C809.983,307.846,808.832,306.92,807.408,306.92z M804.834,315.207h-5.149v-4.144h5.149
				V315.207z"/>
			<path d="M828.003,306.92h-10.297c-1.423,0-2.574,0.926-2.574,2.072v8.287c0,1.146,1.151,2.072,2.574,2.072h10.297
				c1.423,0,2.574-0.926,2.574-2.072v-8.287C830.577,307.846,829.427,306.92,828.003,306.92z M825.429,315.207h-5.149v-4.144h5.149
				V315.207z"/>
			<rect x="773.943" y="282.058" width="15.446" height="4.144"/>
			<rect x="794.537" y="282.058" width="15.446" height="4.144"/>
			<rect x="815.131" y="282.058" width="15.446" height="4.144"/>
			<path d="M761.071,344.212c4.258,0,7.723-2.789,7.723-6.215c0-3.427-3.465-6.216-7.723-6.216s-7.723,2.789-7.723,6.216
				C753.348,341.424,756.813,344.212,761.071,344.212z M761.071,335.925c1.421,0,2.574,0.928,2.574,2.072
				c0,1.144-1.153,2.072-2.574,2.072s-2.574-0.928-2.574-2.072C758.497,336.853,759.65,335.925,761.071,335.925z"/>
		</g>
		<g id="Layer_1_1_">
		</g>
	</g>
	<g>
	</g>
	<g>
	</g>
	<g>
	</g>
	<g>
	</g>
	<g>
	</g>
	<g>
	</g>
	<g>
	</g>
	<g>
	</g>
	<g>
	</g>
	<g>
	</g>
	<g>
	</g>
	<g>
	</g>
	<g>
	</g>
	<g>
	</g>
	<g>
	</g>
</g>
<g>
	<path style="fill:#F2F2F2;" d="M874.966,347.457h-1.717c-1.618,0-2.928-1.171-2.928-2.616v-51.305c0-1.445,1.31-2.617,2.928-2.617
		h41.073c1.618,0,2.93,1.172,2.93,2.617v1.585v49.72c0,1.445-1.312,2.616-2.93,2.616L874.966,347.457L874.966,347.457z
		 M911.984,338.391l-3.932-4.781l-3.933,4.781l3.933,4.781L911.984,338.391z M905.148,319.187l-11.362-13.814l-11.363,13.814
		l11.363,13.814L905.148,319.187z M883.451,299.984l-3.932-4.781l-3.933,4.781l3.933,4.781L883.451,299.984z"/>
	<path style="fill:#2BA5F7;" d="M921.895,297.738v51.305c0,1.445-1.31,2.616-2.928,2.616h-41.073c-1.618,0-2.928-1.171-2.928-2.616
		v-1.586h39.356c1.618,0,2.93-1.171,2.93-2.616V295.12h1.715C920.584,295.12,921.895,296.292,921.895,297.738z"/>
	<g>
		<polygon style="fill:#F95428;" points="908.052,333.61 911.984,338.391 908.052,343.172 904.119,338.391 		"/>
		<polygon style="fill:#F95428;" points="893.786,305.374 905.148,319.187 893.786,333.001 882.423,319.187 		"/>
		<polygon style="fill:#F95428;" points="879.52,295.203 883.451,299.984 879.52,304.765 875.586,299.984 		"/>
	</g>
	<g>
		<path style="fill:#333333;" d="M906.11,318.556l-11.362-13.814c-0.225-0.274-0.582-0.435-0.962-0.435s-0.737,0.162-0.962,0.435
			l-11.362,13.814c-0.309,0.376-0.309,0.887,0,1.264l11.362,13.814c0.225,0.274,0.582,0.435,0.962,0.435s0.737-0.162,0.962-0.435
			l11.362-13.814C906.419,319.443,906.419,318.932,906.11,318.556z M893.785,331.2l-9.88-12.012l9.88-12.012l9.88,12.012
			L893.785,331.2z"/>
		<path style="fill:#333333;" d="M884.414,299.352l-3.932-4.781c-0.225-0.274-0.582-0.435-0.962-0.435
			c-0.38,0-0.737,0.162-0.962,0.435l-3.933,4.781c-0.309,0.376-0.309,0.888,0,1.263l3.933,4.781
			c0.225,0.274,0.582,0.435,0.962,0.435s0.737-0.162,0.962-0.435l3.932-4.781C884.723,300.24,884.723,299.728,884.414,299.352z
			 M879.519,302.963l-2.451-2.979l2.451-2.979l2.451,2.979L879.519,302.963z"/>
		<path style="fill:#333333;" d="M909.014,332.979c-0.225-0.274-0.582-0.435-0.962-0.435c-0.38,0-0.737,0.162-0.962,0.435
			l-3.932,4.781c-0.309,0.376-0.309,0.887,0,1.263l3.932,4.781c0.225,0.274,0.582,0.435,0.962,0.435c0.38,0,0.737-0.162,0.962-0.435
			l3.933-4.781c0.309-0.376,0.309-0.888,0-1.263L909.014,332.979z M908.052,341.371l-2.451-2.979l2.451-2.979l2.451,2.979
			L908.052,341.371z"/>
		<path style="fill:#333333;" d="M918.966,294.053h-0.521v-0.518c0-2.031-1.85-3.684-4.124-3.684H873.25
			c-2.274,0-4.124,1.653-4.124,3.684v51.305c0,2.031,1.85,3.684,4.124,3.684h0.521v0.519c0,2.031,1.849,3.683,4.123,3.683h41.073
			c2.273,0,4.123-1.652,4.123-3.683v-51.305C923.088,295.706,921.239,294.053,918.966,294.053z M871.515,344.84v-51.305
			c0-0.855,0.778-1.55,1.735-1.55h41.072c0.957,0,1.735,0.695,1.735,1.55v51.305c0,0.855-0.778,1.55-1.735,1.55H873.25
			C872.293,346.39,871.515,345.695,871.515,344.84z M920.7,349.043c0,0.854-0.778,1.549-1.734,1.549h-41.073
			c-0.956,0-1.734-0.695-1.734-1.549v-0.519h38.162c2.274,0,4.124-1.653,4.124-3.684v-48.653h0.521c0.956,0,1.734,0.696,1.734,1.551
			L920.7,349.043L920.7,349.043z"/>
	</g>
	<g>
	</g>
	<g>
	</g>
	<g>
	</g>
	<g>
	</g>
	<g>
	</g>
	<g>
	</g>
	<g>
	</g>
	<g>
	</g>
	<g>
	</g>
	<g>
	</g>
	<g>
	</g>
	<g>
	</g>
	<g>
	</g>
	<g>
	</g>
	<g>
	</g>
</g>
<g>
	<path style="fill:#2197D8;" d="M898.939,297.096v52.793c0,1.487-1.311,2.692-2.929,2.692h-41.077c-1.618,0-2.929-1.205-2.929-2.692
		v-1.714h38.901c1.618,0,2.929-1.205,2.929-2.692v-51.08h0.311h1.865C897.628,294.402,898.939,295.609,898.939,297.096z"/>
	<path style="fill:#F2F2F2;" d="M870.455,323.455c2.562,2.355,6.717,2.355,9.281,0c1.281-1.178,1.922-2.721,1.922-4.264
		c0-1.544-0.642-3.089-1.922-4.265l-0.088-0.08l-9.281-8.531l-9.28,8.531l-0.088,0.08c-2.562,2.355-2.562,6.174,0,8.529
		c1.282,1.178,2.961,1.767,4.639,1.767c1.68,0,3.36-0.588,4.641-1.767l0.088-0.08L870.455,323.455z M884.663,340.5l0.037-0.034
		l0.038,0.034c1.08,0.992,2.832,0.992,3.913,0c0.54-0.498,0.809-1.148,0.809-1.799s-0.269-1.301-0.809-1.797l-0.038-0.034
		l-3.913-3.596l-3.913,3.596l-0.037,0.034c-1.08,0.992-1.08,2.603,0,3.596c0.54,0.496,1.249,0.744,1.957,0.744
		C883.415,341.244,884.123,340.996,884.663,340.5z M856.072,301.357c1.08,0.992,2.832,0.992,3.913,0
		c0.54-0.498,0.809-1.148,0.809-1.799s-0.269-1.301-0.809-1.797l-0.038-0.035l-3.913-3.596l-3.913,3.596l-0.037,0.035
		c-1.08,0.992-1.08,2.603,0,3.596c0.54,0.496,1.249,0.744,1.957,0.744c0.707,0,1.416-0.247,1.956-0.744l0.037-0.035L856.072,301.357
		z M893.835,294.402v51.08c0,1.487-1.311,2.692-2.929,2.692h-38.901h-2.176c-1.618,0-2.93-1.205-2.93-2.692V292.69
		c0-1.487,1.312-2.693,2.93-2.693h41.077c1.618,0,2.929,1.206,2.929,2.693V294.402L893.835,294.402z"/>
	<g>
		<path style="fill:#4D4D4D;" d="M888.651,336.904c0.54,0.496,0.809,1.146,0.809,1.797s-0.269,1.301-0.809,1.799
			c-1.081,0.992-2.833,0.992-3.913,0l-0.038-0.034l-0.037,0.034c-0.54,0.496-1.249,0.744-1.956,0.744
			c-0.709,0-1.417-0.247-1.957-0.744c-1.08-0.994-1.08-2.604,0-3.596l0.037-0.034l3.913-3.596l3.913,3.596L888.651,336.904z"/>
		<path style="fill:#4D4D4D;" d="M879.736,314.926c1.281,1.177,1.922,2.721,1.922,4.265c0,1.543-0.642,3.086-1.922,4.264
			c-2.564,2.355-6.719,2.355-9.281,0l-0.088-0.08l-0.088,0.08c-1.281,1.178-2.961,1.767-4.641,1.767
			c-1.679,0-3.357-0.588-4.639-1.767c-2.562-2.355-2.562-6.174,0-8.529l0.088-0.08l9.28-8.531l9.281,8.531L879.736,314.926z"/>
		<path style="fill:#4D4D4D;" d="M859.985,297.76c0.54,0.496,0.809,1.146,0.809,1.797s-0.269,1.301-0.809,1.799
			c-1.081,0.992-2.833,0.992-3.913,0l-0.038-0.035l-0.037,0.035c-0.54,0.496-1.249,0.744-1.956,0.744
			c-0.709,0-1.417-0.247-1.957-0.744c-1.08-0.994-1.08-2.604,0-3.596l0.037-0.035l3.913-3.596l3.913,3.596L859.985,297.76z"/>
	</g>
	<g>
		<path style="fill:#333333;" d="M896.01,293.305h-0.981v-0.615c0-2.09-1.85-3.791-4.124-3.791h-41.076
			c-2.274,0-4.124,1.7-4.124,3.79v52.793c0,2.09,1.85,3.79,4.124,3.79h0.981v0.616c0,2.09,1.85,3.79,4.123,3.79h41.077
			c2.273,0,4.123-1.7,4.123-3.79v-52.792C900.133,295.005,898.284,293.305,896.01,293.305z M848.094,345.482v-52.793
			c0-0.879,0.778-1.595,1.735-1.595h41.076c0.957,0,1.735,0.715,1.735,1.595v52.793c0,0.879-0.778,1.595-1.735,1.595h-41.076
			C848.873,347.077,848.094,346.362,848.094,345.482z M897.745,349.889c0,0.879-0.778,1.594-1.734,1.594h-41.077
			c-0.956,0-1.734-0.715-1.734-1.594v-0.616h37.706c2.274,0,4.124-1.7,4.124-3.79V295.5h0.981c0.956,0,1.734,0.716,1.734,1.595
			L897.745,349.889L897.745,349.889L897.745,349.889z"/>
		<path style="fill:#333333;" d="M875.689,330.759h-4.04v-5.183c2.901,1.319,6.518,0.872,8.931-1.345
			c3.024-2.78,3.024-7.302,0-10.082l-9.368-8.61c-0.224-0.206-0.528-0.322-0.845-0.322c-0.317,0-0.621,0.116-0.845,0.322
			l-9.368,8.61c-1.465,1.346-2.272,3.137-2.272,5.041c0,1.904,0.807,3.695,2.272,5.041c1.465,1.346,3.413,2.088,5.485,2.088
			c1.283,0,2.518-0.285,3.621-0.822v5.261h-4.04c-0.66,0-1.194,0.492-1.194,1.098s0.535,1.098,1.194,1.098h10.468
			c0.66,0,1.194-0.492,1.194-1.098S876.349,330.759,875.689,330.759z M861.844,322.678c-1.014-0.932-1.572-2.171-1.572-3.489
			c0-1.318,0.558-2.557,1.572-3.489l8.523-7.834l8.523,7.834c2.093,1.924,2.093,5.053,0,6.977c-2.093,1.924-5.498,1.923-7.591,0
			l-0.088-0.08c-0.466-0.429-1.223-0.429-1.689,0l-0.088,0.08c-1.014,0.932-2.362,1.445-3.796,1.445S862.858,323.61,861.844,322.678
			z"/>
		<path style="fill:#333333;" d="M859.473,304.899c0-0.606-0.535-1.098-1.194-1.098h-1.013v-0.672
			c1.25,0.224,2.596-0.108,3.563-0.996c1.544-1.42,1.544-3.729,0-5.149l-3.95-3.631c-0.224-0.206-0.528-0.322-0.845-0.322
			s-0.621,0.116-0.845,0.322l-3.95,3.631c-0.748,0.688-1.16,1.602-1.16,2.575s0.412,1.887,1.16,2.574
			c0.748,0.688,1.743,1.066,2.801,1.066c0.285,0,0.564-0.029,0.836-0.082v0.684h-1.013c-0.66,0-1.194,0.492-1.194,1.098
			s0.535,1.098,1.194,1.098h4.414C858.938,305.997,859.473,305.505,859.473,304.899z M852.929,300.58
			c-0.297-0.273-0.461-0.636-0.461-1.022s0.164-0.749,0.461-1.022l3.105-2.854l3.106,2.854c0.613,0.564,0.613,1.48,0,2.044
			c-0.613,0.564-1.611,0.564-2.225-0.001l-0.037-0.034c-0.466-0.428-1.221-0.428-1.688,0l-0.038,0.035
			c-0.297,0.273-0.692,0.423-1.112,0.423S853.226,300.853,852.929,300.58z"/>
		<path style="fill:#333333;" d="M885.545,332.497c-0.224-0.206-0.528-0.322-0.845-0.322c-0.317,0-0.621,0.116-0.844,0.322
			l-3.95,3.63c-1.545,1.42-1.545,3.729,0,5.149c0.748,0.688,1.743,1.066,2.801,1.066c0.285,0,0.564-0.029,0.836-0.082v0.684h-1.013
			c-0.66,0-1.194,0.492-1.194,1.098s0.535,1.098,1.194,1.098h4.414c0.66,0,1.194-0.492,1.194-1.098s-0.535-1.098-1.194-1.098h-1.013
			v-0.672c1.251,0.224,2.596-0.108,3.563-0.996c1.544-1.42,1.544-3.729-0.001-5.15L885.545,332.497z M887.806,339.724
			c-0.613,0.564-1.611,0.564-2.224,0l-0.037-0.034c-0.466-0.429-1.223-0.429-1.689,0l-0.037,0.034
			c-0.297,0.273-0.692,0.423-1.112,0.423s-0.815-0.15-1.112-0.423c-0.613-0.564-0.613-1.48-0.001-2.043l3.106-2.855l3.105,2.854
			C888.419,338.243,888.419,339.16,887.806,339.724z"/>
	</g>
	<g>
	</g>
	<g>
	</g>
	<g>
	</g>
	<g>
	</g>
	<g>
	</g>
	<g>
	</g>
	<g>
	</g>
	<g>
	</g>
	<g>
	</g>
	<g>
	</g>
	<g>
	</g>
	<g>
	</g>
	<g>
	</g>
	<g>
	</g>
	<g>
	</g>
</g>
<image style="overflow:visible;" width="48" height="48" xlink:href="../../../../../Downloads/poker.png"  transform="matrix(0.75 0 0 0.75 864.4127 325.7078)">
</image>
<rect x="625.935" y="118.097" transform="matrix(0.7113 -0.7029 0.7029 0.7113 76.702 498.9725)" style="fill:#FBB03B;stroke:#000000;stroke-width:4;" width="39.669" height="76.033"/>
<polygon style="fill:#FBB03B;stroke:#000000;stroke-width:4;" points="699.069,209.505 691.729,156.114 645.769,201.53 "/>
<line style="fill:none;stroke:#FBB03B;stroke-width:7;" x1="655.454" y1="190.587" x2="679.865" y2="166.035"/>
<g>
	<rect x="523.289" y="81.094" style="fill:none;" width="155.567" height="26.677"/>
	<path style="fill:#FFFFFF;" d="M562.846,100.201c0.495,0.924,0.132,2.08-0.792,2.607c-1.684,0.891-3.564,1.386-5.512,1.386
		c-6.37,0-11.552-5.182-11.552-11.552c0-6.37,5.182-11.552,11.552-11.552c1.947,0,3.828,0.495,5.512,1.386
		c0.924,0.528,1.287,1.684,0.792,2.607c-0.528,0.957-1.683,1.287-2.641,0.792c-1.089-0.627-2.376-0.924-3.663-0.924
		c-4.225,0-7.69,3.433-7.69,7.69c0,4.258,3.466,7.69,7.69,7.69c1.287,0,2.574-0.297,3.663-0.924
		C561.163,98.914,562.317,99.244,562.846,100.201z"/>
	<path style="fill:#FFFFFF;" d="M569.575,83.005v19.275c0,1.056-0.858,1.914-1.947,1.914c-1.056,0-1.914-0.858-1.914-1.914V83.005
		c0-1.056,0.858-1.915,1.914-1.915C568.717,81.091,569.575,81.949,569.575,83.005z"/>
	<path style="fill:#FFFFFF;" d="M574.128,85.943c-1.056,0-1.914-0.858-1.914-1.947c0-1.056,0.858-1.915,1.914-1.915
		s1.947,0.858,1.947,1.915C576.076,85.084,575.185,85.943,574.128,85.943z M572.214,102.28V90.729c0-1.056,0.858-1.947,1.914-1.947
		s1.947,0.891,1.947,1.947v11.552c0,1.056-0.891,1.914-1.947,1.914S572.214,103.336,572.214,102.28z"/>
	<path style="fill:#FFFFFF;" d="M578.715,96.504c0-4.258,3.234-7.723,7.228-7.723c1.023,0,2.013,0.231,2.97,0.693
		c0.693,0.297,1.089,0.99,1.089,1.716c0,0.297-0.066,0.561-0.198,0.825c-0.33,0.693-0.99,1.122-1.716,1.122
		c-0.264,0-0.561-0.066-0.825-0.198c-0.429-0.198-0.858-0.297-1.32-0.297c-1.848,0-3.367,1.716-3.367,3.862
		c0,2.112,1.519,3.829,3.367,3.829c0.462,0,0.891-0.099,1.32-0.297c0.264-0.132,0.528-0.165,0.792-0.165
		c0.726,0,1.419,0.396,1.749,1.089c0.132,0.264,0.198,0.528,0.198,0.825c0,0.726-0.396,1.419-1.089,1.749
		c-0.957,0.429-1.947,0.66-2.97,0.66C581.949,104.194,578.715,100.729,578.715,96.504z"/>
	<path style="fill:#FFFFFF;" d="M604.589,100.894c0.429,0.429,0.561,0.891,0.561,1.386c0,0.495-0.198,0.99-0.561,1.353
		c-0.363,0.363-0.858,0.561-1.354,0.561s-0.99-0.198-1.354-0.561l-5.38-5.38v4.027c0,1.056-0.891,1.914-1.947,1.914
		s-1.914-0.858-1.914-1.914V83.005c0-1.056,0.858-1.915,1.914-1.915s1.947,0.858,1.947,1.915v11.717l5.38-5.38
		c0.363-0.363,0.858-0.528,1.354-0.528s0.957,0.165,1.354,0.528c0.362,0.396,0.561,0.891,0.561,1.386s-0.198,0.99-0.561,1.353
		l-4.423,4.423L604.589,100.894z"/>
	<path style="fill:#FFFFFF;" d="M634.553,94.755v7.525c0,1.056-0.891,1.914-1.947,1.914c-1.056,0-1.914-0.858-1.914-1.914v-7.525
		c0-0.198-0.065-0.792-0.33-1.32c-0.264-0.594-0.594-0.792-1.254-0.792s-1.023,0.198-1.287,0.792
		c-0.231,0.528-0.297,1.123-0.297,1.32v7.525c0,1.056-0.892,1.914-1.947,1.914c-1.057,0-1.915-0.858-1.915-1.914v-7.525
		c0-0.198-0.065-0.792-0.297-1.32c-0.297-0.561-0.627-0.792-1.287-0.792s-1.023,0.231-1.287,0.792
		c-0.231,0.528-0.297,1.123-0.297,1.32v7.525c0,1.056-0.858,1.914-1.947,1.914c-1.057,0-1.914-0.858-1.914-1.914V90.729
		c0-1.056,0.857-1.947,1.914-1.947c0.495,0,0.924,0.198,1.254,0.462c0.66-0.297,1.387-0.462,2.277-0.462
		c1.519,0,2.674,0.528,3.499,1.287c0.857-0.759,2.013-1.287,3.531-1.287C633.101,88.781,634.553,92.346,634.553,94.755z"/>
	<path style="fill:#FFFFFF;" d="M643.791,104.161c-2.014-0.099-3.763-0.957-4.951-2.442c-1.089-1.386-1.649-3.201-1.649-5.248
		c0-4.258,3.036-7.69,6.732-7.69c1.849,0,3.564,0.759,4.819,2.178c1.254,1.353,1.914,3.202,1.914,5.182
		c0,1.056-0.858,1.947-1.914,1.947h-7.492c0.33,1.056,1.056,2.178,2.739,2.245h0.198c0.495,0,1.419,0,2.244-0.594
		c0.33-0.198,0.692-0.297,1.056-0.297c0.627,0,1.255,0.297,1.617,0.858c0.231,0.297,0.33,0.66,0.33,1.023
		c0,0.627-0.33,1.288-0.891,1.65c-1.584,1.056-3.234,1.221-4.159,1.221C644.121,104.194,643.923,104.194,643.791,104.161z
		 M646.398,94.227c-0.495-0.99-1.387-1.617-2.476-1.617c-0.924,0-1.782,0.66-2.311,1.617H646.398z"/>
	<path style="fill:#FFFFFF;" d="M657.155,83.005v13.499c0,1.056-0.892,1.914-1.947,1.914c-1.057,0-1.914-0.858-1.914-1.914V83.005
		c0-1.056,0.857-1.915,1.914-1.915C656.264,81.091,657.155,81.949,657.155,83.005z M657.155,102.28c0,1.056-0.892,1.914-1.947,1.914
		c-1.057,0-1.914-0.858-1.914-1.914c0-1.089,0.857-1.947,1.914-1.947C656.264,100.333,657.155,101.191,657.155,102.28z"/>
</g>
<ellipse style="fill:#C7B299;stroke:#000000;stroke-width:4;stroke-miterlimit:10;" cx="498.178" cy="206.657" rx="102.893" ry="78.512"/>
<path style="stroke:#000000;stroke-width:4;stroke-miterlimit:10;" d="M536.385,414.096h-76.413c-6.6,0-12-5.4-12-12V293.864
	c0-6.6,5.4-12,12-12h76.413c6.6,0,12,5.4,12,12v108.231C548.385,408.695,542.984,414.096,536.385,414.096z"/>
<polygon style="fill:#FFFFFF;stroke:#000000;stroke-width:4;stroke-miterlimit:10;" points="498.178,378.476 543.262,285.17 
	453.094,285.17 "/>
<polygon style="stroke:#000000;stroke-width:4;stroke-miterlimit:10;" points="498.872,300.046 481.517,310.066 481.517,290.026 "/>
<polygon style="stroke:#000000;stroke-width:4;stroke-miterlimit:10;" points="501.491,300.046 518.847,290.026 518.847,310.066 "/>
<path style="stroke:#000000;stroke-width:4;stroke-miterlimit:10;" d="M408.872,167.639c-0.71,0.969-0.71,0.969-0.71,0.969
	s94.66-93.707,179.321-0.969"/>
<line style="fill:#C7B299;stroke:#C7B299;stroke-width:4;stroke-miterlimit:10;" x1="452.31" y1="133.93" x2="461.971" y2="168.608"/>
<path style="fill:#FFFFFF;stroke:#000000;stroke-width:4;stroke-miterlimit:10;" d="M433.439,312.668l-77.801-19.188
	c-6.408-1.58-10.358-8.116-8.778-14.524l1.934-7.842c1.58-6.408,8.116-10.358,14.524-8.778l77.801,19.188
	c6.408,1.58,10.358,8.116,8.778,14.524l-1.934,7.842C446.383,310.298,439.847,314.248,433.439,312.668z"/>
<path style="fill:#FFFFFF;stroke:#000000;stroke-width:4;stroke-miterlimit:10;" d="M566.523,381.476l-21.505-77.193
	c-1.771-6.358,1.981-13.009,8.339-14.78l10.122-2.82c6.358-1.771,13.009,1.981,14.78,8.339l21.505,77.193
	c1.771,6.358-1.981,13.009-8.339,14.78l-10.122,2.82C574.946,391.586,568.294,387.834,566.523,381.476z"/>
<polygon style="stroke:#000000;stroke-width:2;stroke-miterlimit:10;" points="526.57,166.774 583.788,168.555 543.552,182.804 "/>
<polygon style="stroke:#000000;stroke-width:2;stroke-miterlimit:10;" points="498.872,166.774 556.09,168.555 515.854,182.804 "/>
<ellipse style="fill:#FFFFFF;stroke:#000000;stroke-width:4;stroke-miterlimit:10;" cx="460.517" cy="206.657" rx="8.773" ry="17.833"/>
<ellipse style="fill:#FFFFFF;stroke:#000000;stroke-width:4;stroke-miterlimit:10;" cx="531.481" cy="206.657" rx="8.773" ry="17.833"/>
<ellipse style="stroke:#000000;stroke-width:4;stroke-miterlimit:10;" cx="461.517" cy="214.523" rx="4.751" ry="7.866"/>
<ellipse style="stroke:#000000;stroke-width:4;stroke-miterlimit:10;" cx="531.481" cy="214.523" rx="4.751" ry="7.866"/>
<circle style="fill:#FFFFFF;stroke:#000000;stroke-width:2;stroke-miterlimit:10;" cx="499.7" cy="327.346" r="2.388"/>
<circle style="fill:#FFFFFF;stroke:#000000;stroke-width:2;stroke-miterlimit:10;" cx="499.7" cy="314.054" r="2.388"/>
<circle style="fill:#FFFFFF;stroke:#000000;stroke-width:2;stroke-miterlimit:10;" cx="499.7" cy="340.637" r="2.388"/>
<circle style="fill:#FFFFFF;stroke:#000000;stroke-width:2;stroke-miterlimit:10;" cx="499.7" cy="354.554" r="2.388"/>
<ellipse style="fill:#C7B299;stroke:#000000;stroke-width:4;stroke-miterlimit:10;" cx="344.135" cy="274.124" rx="22.667" ry="19.557"/>
<path style="stroke:#000000;stroke-width:4;stroke-miterlimit:10;" d="M481.665,505.105H458.87c-6.6,0-12-5.4-12-12V419.48
	c0-6.6,5.4-12,12-12h22.795c6.6,0,12,5.4,12,12v73.625C493.665,499.705,488.265,505.105,481.665,505.105z"/>
<path style="stroke:#000000;stroke-width:4;stroke-miterlimit:10;" d="M538.879,505.105h-22.795c-6.6,0-12-5.4-12-12V419.48
	c0-6.6,5.4-12,12-12h22.795c6.6,0,12,5.4,12,12v73.625C550.879,499.705,545.479,505.105,538.879,505.105z"/>
<g>
	<g>
		<title>Layer 1</title>
		<path id="svg_2_1_" style="stroke:#010101;" d="M519.977,241.172h-0.081v0.131h-0.081l0,0v0.131l0,0l0,0h-0.081l0,0v0.131h-0.081
			l0,0v0.131h-0.163h-0.081v-0.131l0.081-0.131v-0.131v-0.131h0.081l0,0v-0.131h0.081l0,0v-0.131l0,0l0,0l0.081-0.131l0.081-0.131
			l0,0l0,0v-0.131c0,0,0.081-0.087,0.244-0.261c0.108-0.261,0.379-0.566,0.813-0.915c0.433-0.349,0.894-0.523,1.382-0.523
			c0.542,0,0.975,0.131,1.3,0.392c0.379,0.261,0.786,0.653,1.219,1.176c0.379,0.523,0.759,1.176,1.138,1.96
			c0.379,0.784,0.65,1.612,0.813,2.483c0.163,0.958,0.244,1.917,0.244,2.875c0,1.046-0.081,2.004-0.244,2.875
			c-0.163,0.958-0.461,1.917-0.894,2.875c-0.325,0.958-0.704,1.743-1.138,2.353c-0.433,0.61-1.002,1.22-1.707,1.83
			c-0.704,0.697-1.517,1.22-2.438,1.568c-0.921,0.523-1.924,0.871-3.007,1.046c-1.03,0.174-2.222,0.174-3.576,0
			c-1.409,0-2.872-0.261-4.389-0.784c-1.517-0.523-2.926-1.133-4.226-1.83c-1.3-0.697-2.438-1.481-3.414-2.353
			c-0.921-0.871-1.626-1.655-2.113-2.353c-0.542-0.697-0.867-1.089-0.975-1.176s-0.271,0-0.488,0.261
			c-0.163,0.261-0.596,0.828-1.3,1.699c-0.704,0.871-1.544,1.655-2.52,2.352c-0.975,0.697-2.14,1.394-3.495,2.091
			c-1.3,0.697-2.763,1.263-4.389,1.699c-1.626,0.436-2.98,0.697-4.064,0.784c-1.03,0.087-1.788,0.044-2.276-0.131
			c-0.488,0-1.246-0.218-2.276-0.653c-1.084-0.436-2.005-0.915-2.763-1.438c-0.704-0.523-1.3-1.046-1.788-1.568
			c-0.488-0.697-0.921-1.438-1.3-2.222c-0.433-0.871-0.759-1.83-0.975-2.875c-0.217-1.046-0.352-2.135-0.406-3.267
			c-0.054-1.046-0.027-1.917,0.081-2.614c0.108-0.61,0.271-1.351,0.488-2.222c0.325-0.871,0.569-1.438,0.732-1.699
			c0.217-0.349,0.325-0.566,0.325-0.653s0.054-0.174,0.163-0.261s0.406-0.349,0.894-0.784s1.03-0.653,1.626-0.653
			c0.65,0,1.192,0.131,1.626,0.392l0.65,0.392v0.131l0,0h0.081v0.131l0,0h0.081l0,0l0,0l0.081,0.131l0.081,0.131l0,0l0,0h0.081l0,0
			v0.131h0.081v0.131v0.131h-0.163l-0.244-0.131h-0.081h-0.081v-0.131h-0.081l0,0v-0.131H476.9
			c-0.163-0.174-0.461-0.218-0.894-0.131c-0.434,0.087-0.813,0.305-1.138,0.653c-0.271,0.436-0.515,0.958-0.732,1.568
			c-0.217,0.61-0.325,1.481-0.325,2.614c0,1.22,0.108,2.048,0.325,2.483c0.163,0.436,0.379,0.784,0.65,1.046
			c0.271,0.261,0.65,0.392,1.138,0.392c0.542,0,1.192-0.261,1.951-0.784c0.813-0.523,1.842-1.351,3.089-2.483
			c1.3-1.133,2.574-2.309,3.82-3.529c1.3-1.22,2.411-2.178,3.332-2.875c0.975-0.697,1.788-1.133,2.438-1.307
			c0.704-0.349,1.49-0.479,2.357-0.392c0.867,0.087,1.707,0.305,2.52,0.653c0.813,0.523,1.517,1.089,2.113,1.699
			c0.65,0.61,1.002,0.958,1.057,1.046c0.054,0.087,0.379-0.218,0.975-0.915c0.596-0.697,1.3-1.22,2.113-1.568
			c0.813-0.523,1.409-0.784,1.788-0.784c0.379-0.174,1.057-0.218,2.032-0.131c0.975,0.087,1.842,0.261,2.601,0.523
			c0.704,0.261,1.571,0.828,2.601,1.699c1.03,0.871,2.52,2.353,4.47,4.444c1.951,2.091,3.278,3.311,3.983,3.659
			c0.65,0.523,1.273,0.784,1.869,0.784c0.596,0,1.111-0.174,1.544-0.523c0.433-0.349,0.759-0.697,0.975-1.046
			c0.217-0.436,0.325-1.176,0.325-2.222c0-1.046-0.108-1.873-0.325-2.483s-0.461-1.133-0.732-1.568
			c-0.271-0.349-0.515-0.61-0.732-0.784c-0.271-0.174-0.596-0.261-0.975-0.261c-0.325,0-0.596,0.131-0.813,0.392
			C520.14,241.041,520.032,241.172,519.977,241.172z"/>
	</g>
</g>
<line style="fill:none;stroke:#010101;" x1="491.042" y1="258.162" x2="505.347" y2="257.639"/>
<ellipse transform="matrix(0.9004 -0.4351 0.4351 0.9004 -169.7412 252.3458)" style="stroke:#000000;stroke-width:4;stroke-miterlimit:10;" cx="466.268" cy="496.898" rx="29" ry="21.787"/>
<ellipse transform="matrix(0.7071 -0.7071 0.7071 0.7071 -194.642 520.9168)" style="stroke:#000000;stroke-width:4;stroke-miterlimit:10;" cx="531.481" cy="495.412" rx="21.787" ry="29"/>
<ellipse style="fill:#FFFFFF;stroke:#000000;stroke-width:4;stroke-miterlimit:10;" cx="260.197" cy="95.86" rx="114.653" ry="95.86"/>
<polygon style="fill:#FFFFFF;stroke:#000000;stroke-width:4;stroke-miterlimit:10;" points="356.964,145.562 322.441,175.216 
	379.719,184.975 "/>
<ellipse style="fill:#FFFFFF;stroke:#FFFFFF;stroke-width:4;stroke-miterlimit:10;" cx="325.92" cy="151.269" rx="24.667" ry="17.466"/>
<g>
	<rect x="176.339" y="27.965" style="fill:none;" width="158.906" height="66.667"/>
	<path d="M209.758,29.206c0,0.147-0.021,0.315-0.084,0.462l-5.123,12.241c-0.189,0.462-0.63,0.756-1.113,0.756
		c-0.504,0-0.945-0.294-1.134-0.756l-1.617-3.884l-1.638,3.884c-0.189,0.462-0.63,0.756-1.113,0.756
		c-0.504,0-0.945-0.294-1.134-0.756l-5.123-12.241c-0.063-0.147-0.084-0.315-0.084-0.462c0-0.63,0.504-1.239,1.239-1.239
		c0.483,0,0.924,0.294,1.113,0.756l3.989,9.532l1.407-3.422l-2.142-5.165c-0.063-0.147-0.105-0.315-0.105-0.483
		c0-0.63,0.504-1.218,1.239-1.218c0.588,0,0.924,0.294,1.113,0.756l1.239,2.939l1.218-2.939c0.189-0.462,0.63-0.756,1.113-0.756
		c0.735,0,1.239,0.609,1.239,1.239c0,0.147-0.021,0.315-0.084,0.462l-2.163,5.165l1.428,3.422l3.968-9.532
		c0.189-0.462,0.63-0.756,1.113-0.756c0.168,0,0.336,0.042,0.483,0.105C209.485,28.261,209.758,28.723,209.758,29.206z"/>
	<path d="M213.12,42.644c-1.281-0.063-2.394-0.609-3.149-1.554c-0.693-0.882-1.05-2.037-1.05-3.338c0-2.708,1.932-4.892,4.283-4.892
		c1.176,0,2.268,0.483,3.065,1.386c0.798,0.861,1.218,2.037,1.218,3.296c0,0.672-0.546,1.239-1.218,1.239h-4.766
		c0.21,0.672,0.672,1.386,1.743,1.428h0.126c0.315,0,0.903,0,1.428-0.378c0.21-0.126,0.441-0.189,0.672-0.189
		c0.399,0,0.798,0.189,1.029,0.546c0.147,0.189,0.21,0.42,0.21,0.651c0,0.399-0.21,0.819-0.567,1.05
		c-1.008,0.672-2.058,0.777-2.646,0.777C213.33,42.665,213.204,42.665,213.12,42.644z M214.779,36.324
		c-0.315-0.63-0.882-1.029-1.575-1.029c-0.588,0-1.134,0.42-1.47,1.029H214.779z"/>
	<path d="M221.625,29.185v12.262c0,0.672-0.546,1.218-1.239,1.218c-0.672,0-1.218-0.546-1.218-1.218V29.185
		c0-0.672,0.546-1.218,1.218-1.218C221.08,27.967,221.625,28.513,221.625,29.185z"/>
	<path d="M223.306,37.772c0-2.708,2.058-4.913,4.598-4.913c0.651,0,1.281,0.147,1.89,0.441c0.441,0.189,0.693,0.63,0.693,1.092
		c0,0.189-0.042,0.357-0.126,0.525c-0.21,0.441-0.63,0.714-1.092,0.714c-0.168,0-0.357-0.042-0.525-0.126
		c-0.273-0.126-0.546-0.189-0.84-0.189c-1.176,0-2.142,1.092-2.142,2.457c0,1.344,0.966,2.436,2.142,2.436
		c0.294,0,0.567-0.063,0.84-0.189c0.168-0.084,0.336-0.105,0.504-0.105c0.462,0,0.903,0.252,1.113,0.693
		c0.084,0.168,0.126,0.336,0.126,0.525c0,0.462-0.252,0.903-0.693,1.113c-0.609,0.273-1.239,0.42-1.89,0.42
		C225.363,42.665,223.306,40.46,223.306,37.772z"/>
	<path d="M241.133,37.772c0,2.688-2.205,4.892-4.913,4.892c-2.688,0-4.892-2.205-4.892-4.892c0-2.708,2.205-4.913,4.892-4.913
		C238.928,32.859,241.133,35.064,241.133,37.772z M238.676,37.772c0-1.365-1.092-2.457-2.457-2.457
		c-1.344,0-2.436,1.092-2.436,2.457c0,1.344,1.092,2.436,2.436,2.436C237.584,40.208,238.676,39.116,238.676,37.772z"/>
	<path d="M254.215,36.66v4.787c0,0.672-0.567,1.218-1.239,1.218s-1.218-0.546-1.218-1.218V36.66c0-0.126-0.042-0.504-0.21-0.84
		c-0.168-0.378-0.378-0.504-0.798-0.504s-0.651,0.126-0.819,0.504c-0.147,0.336-0.189,0.714-0.189,0.84v4.787
		c0,0.672-0.567,1.218-1.239,1.218s-1.218-0.546-1.218-1.218V36.66c0-0.126-0.042-0.504-0.189-0.84
		c-0.189-0.357-0.399-0.504-0.819-0.504s-0.651,0.147-0.819,0.504c-0.147,0.336-0.189,0.714-0.189,0.84v4.787
		c0,0.672-0.546,1.218-1.239,1.218c-0.672,0-1.218-0.546-1.218-1.218v-7.349c0-0.672,0.546-1.239,1.218-1.239
		c0.315,0,0.588,0.126,0.798,0.294c0.42-0.189,0.882-0.294,1.449-0.294c0.966,0,1.701,0.336,2.226,0.819
		c0.546-0.483,1.281-0.819,2.247-0.819C253.292,32.859,254.215,35.127,254.215,36.66z"/>
	<path d="M260.096,42.644c-1.281-0.063-2.394-0.609-3.149-1.554c-0.693-0.882-1.05-2.037-1.05-3.338
		c0-2.708,1.932-4.892,4.283-4.892c1.176,0,2.268,0.483,3.065,1.386c0.798,0.861,1.218,2.037,1.218,3.296
		c0,0.672-0.546,1.239-1.218,1.239h-4.766c0.21,0.672,0.672,1.386,1.743,1.428h0.126c0.315,0,0.903,0,1.428-0.378
		c0.21-0.126,0.441-0.189,0.672-0.189c0.399,0,0.798,0.189,1.029,0.546c0.147,0.189,0.21,0.42,0.21,0.651
		c0,0.399-0.21,0.819-0.567,1.05c-1.008,0.672-2.058,0.777-2.646,0.777C260.306,42.665,260.18,42.665,260.096,42.644z
		 M261.755,36.324c-0.315-0.63-0.882-1.029-1.575-1.029c-0.588,0-1.134,0.42-1.47,1.029H261.755z"/>
	<path d="M268.602,29.185v8.587c0,0.672-0.567,1.218-1.239,1.218s-1.218-0.546-1.218-1.218v-8.587c0-0.672,0.546-1.218,1.218-1.218
		S268.602,28.513,268.602,29.185z M268.602,41.447c0,0.672-0.567,1.218-1.239,1.218s-1.218-0.546-1.218-1.218
		c0-0.693,0.546-1.239,1.218-1.239S268.602,40.754,268.602,41.447z"/>
	<path d="M286.933,41.447v-8.587l-3.296,4.409c-0.231,0.315-0.609,0.504-0.987,0.504s-0.756-0.189-0.987-0.504l-3.296-4.409v8.587
		c0,0.672-0.546,1.218-1.239,1.218c-0.672,0-1.218-0.546-1.218-1.218V29.185c0-0.651,0.525-1.218,1.239-1.218
		c0.378,0,0.735,0.168,0.966,0.483l4.535,6.047l4.535-6.047c0.231-0.315,0.588-0.483,0.966-0.483c0.714,0,1.239,0.567,1.239,1.218
		v12.262c0,0.672-0.546,1.218-1.239,1.218C287.479,42.665,286.933,42.119,286.933,41.447z"/>
	<path d="M299.638,41.447c0,0.651-0.546,1.218-1.218,1.218c-0.483,0-0.903-0.273-1.092-0.672c-0.441,0.231-0.924,0.399-1.449,0.504
		c-0.168,0.021-0.672,0.147-1.323,0.147c-1.785,0-3.023-0.903-3.401-2.499c-0.063-0.231-0.084-0.462-0.084-0.693
		c0-0.588,0.189-1.155,0.546-1.617c0.483-0.63,1.491-1.386,3.758-1.47c0.315,0,0.609-0.021,0.924-0.021c0.231,0,0.504,0,0.798,0.042
		c-0.063-0.336-0.21-0.693-0.42-0.819c-0.315-0.168-0.693-0.252-1.05-0.252c-0.798,0-1.596,0.357-2.037,0.714
		c-0.231,0.189-0.504,0.273-0.777,0.273c-0.357,0-0.693-0.147-0.945-0.441c-0.189-0.231-0.273-0.504-0.273-0.777
		c0-0.357,0.147-0.714,0.441-0.945c0.84-0.693,1.869-1.134,3.002-1.239c0.189-0.021,0.357-0.021,0.546-0.021
		c0.84,0,1.638,0.189,2.289,0.546c1.68,0.945,1.743,3.149,1.743,3.38v3.296L299.638,41.447z M297.013,38.843
		c-0.147-0.021-0.378-0.042-0.714-0.042c-0.273,0-0.567,0-1.071,0.021c-0.966,0.042-1.512,0.294-1.659,0.483
		c-0.021,0.042-0.063,0.084-0.063,0.168c0,0.021,0.021,0.063,0.021,0.105c0.063,0.252,0.147,0.609,1.029,0.609
		c0.378,0,0.693-0.063,0.798-0.084c0.042-0.021,0.063-0.021,0.084-0.021c0.777-0.147,1.26-0.609,1.47-0.987L297.013,38.843z"/>
	<path d="M306.632,41.972l-0.147,0.231l-2.1,4.64c-0.21,0.462-0.651,0.714-1.113,0.714c-0.168,0-0.357-0.021-0.525-0.105
		c-0.441-0.189-0.693-0.651-0.693-1.113c0-0.168,0.021-0.336,0.105-0.504l1.995-4.43l-3.212-6.782
		c-0.084-0.168-0.126-0.336-0.126-0.525c0-0.462,0.252-0.903,0.693-1.113c0.168-0.084,0.357-0.126,0.525-0.126
		c0.462,0,0.903,0.273,1.113,0.714l2.394,5.018l2.373-5.018c0.21-0.441,0.651-0.714,1.113-0.714c0.168,0,0.357,0.042,0.525,0.126
		c0.441,0.21,0.693,0.651,0.693,1.113c0,0.189-0.042,0.357-0.126,0.525L306.632,41.972z"/>
	<path d="M317.553,41.447V29.185c0-0.672,0.546-1.218,1.218-1.218s1.218,0.546,1.218,1.218v12.262c0,0.672-0.546,1.218-1.218,1.218
		S317.553,42.119,317.553,41.447z"/>
	<path d="M201.685,62.973c0,2.688-2.205,4.892-4.913,4.892c-2.688,0-4.892-2.205-4.892-4.892c0-2.708,2.205-4.913,4.892-4.913
		C199.48,58.06,201.685,60.264,201.685,62.973z M199.228,62.973c0-1.365-1.092-2.457-2.457-2.457c-1.344,0-2.436,1.092-2.436,2.457
		c0,1.344,1.092,2.436,2.436,2.436C198.136,65.408,199.228,64.316,199.228,62.973z"/>
	<path d="M209.056,59.298c0,0.672-0.546,1.218-1.239,1.218H206.6v6.131c0,0.672-0.546,1.218-1.218,1.218s-1.239-0.546-1.239-1.218
		v-6.131h-0.609c-0.672,0-1.218-0.546-1.218-1.218s0.546-1.239,1.218-1.239h0.609v-1.218c0-0.147,0.021-0.945,0.441-1.764
		c0.609-1.239,1.764-1.911,3.233-1.911c0.693,0,1.239,0.546,1.239,1.218c0,0.693-0.546,1.239-1.239,1.239
		c-0.651,0-0.882,0.252-1.008,0.504c-0.168,0.273-0.21,0.609-0.21,0.714v1.218h1.218C208.51,58.06,209.056,58.626,209.056,59.298z"
		/>
	<path d="M217.477,59.298c0,0.672-0.546,1.218-1.239,1.218h-1.218v6.131c0,0.672-0.546,1.218-1.218,1.218s-1.239-0.546-1.239-1.218
		v-6.131h-0.609c-0.672,0-1.218-0.546-1.218-1.218s0.546-1.239,1.218-1.239h0.609v-1.218c0-0.147,0.021-0.945,0.441-1.764
		c0.609-1.239,1.764-1.911,3.233-1.911c0.693,0,1.239,0.546,1.239,1.218c0,0.693-0.546,1.239-1.239,1.239
		c-0.651,0-0.882,0.252-1.008,0.504c-0.168,0.273-0.21,0.609-0.21,0.714v1.218h1.218C216.931,58.06,217.477,58.626,217.477,59.298z"
		/>
	<path d="M222.392,67.844c-1.281-0.063-2.394-0.609-3.149-1.554c-0.693-0.882-1.05-2.037-1.05-3.338
		c0-2.708,1.932-4.892,4.283-4.892c1.176,0,2.268,0.483,3.065,1.386c0.798,0.861,1.218,2.037,1.218,3.296
		c0,0.672-0.546,1.239-1.218,1.239h-4.766c0.21,0.672,0.672,1.386,1.743,1.428h0.126c0.315,0,0.903,0,1.428-0.378
		c0.21-0.126,0.441-0.189,0.672-0.189c0.399,0,0.798,0.189,1.029,0.546c0.147,0.189,0.21,0.42,0.21,0.651
		c0,0.399-0.21,0.819-0.567,1.05c-1.008,0.672-2.058,0.777-2.646,0.777C222.602,67.865,222.476,67.865,222.392,67.844z
		 M224.05,61.524c-0.315-0.63-0.882-1.029-1.575-1.029c-0.588,0-1.134,0.42-1.47,1.029H224.05z"/>
	<path d="M233.333,59.298c0,0.672-0.546,1.218-1.218,1.218c-0.399,0-0.924,0.063-1.134,0.378c-0.063,0.105-0.084,0.231-0.084,0.231
		v5.522c0,0.672-0.546,1.218-1.239,1.218c-0.672,0-1.218-0.546-1.218-1.218v-7.349c0-0.693,0.546-1.239,1.218-1.239
		c0.315,0,0.588,0.105,0.798,0.294c0.462-0.189,1.008-0.294,1.659-0.294C232.787,58.06,233.333,58.605,233.333,59.298z"/>
	<path d="M246.457,67.172l-0.147,0.231l-2.1,4.64c-0.21,0.462-0.651,0.714-1.113,0.714c-0.168,0-0.357-0.021-0.525-0.105
		c-0.441-0.189-0.693-0.651-0.693-1.113c0-0.168,0.021-0.336,0.105-0.504l1.995-4.43l-3.212-6.782
		c-0.084-0.168-0.126-0.336-0.126-0.525c0-0.462,0.252-0.903,0.693-1.113c0.168-0.084,0.357-0.126,0.525-0.126
		c0.462,0,0.903,0.273,1.113,0.714l2.394,5.018l2.373-5.018c0.21-0.441,0.651-0.714,1.113-0.714c0.168,0,0.357,0.042,0.525,0.126
		c0.441,0.21,0.693,0.651,0.693,1.113c0,0.189-0.042,0.357-0.126,0.525L246.457,67.172z"/>
	<path d="M260.715,62.973c0,2.688-2.205,4.892-4.913,4.892c-2.688,0-4.892-2.205-4.892-4.892c0-2.708,2.205-4.913,4.892-4.913
		C258.511,58.06,260.715,60.264,260.715,62.973z M258.259,62.973c0-1.365-1.092-2.457-2.457-2.457c-1.344,0-2.436,1.092-2.436,2.457
		c0,1.344,1.092,2.436,2.436,2.436C257.167,65.408,258.259,64.316,258.259,62.973z"/>
	<path d="M270.229,59.298v4.766c0,0.168-0.021,0.987-0.462,1.848c-0.672,1.26-1.89,1.953-3.443,1.953
		c-1.575,0-2.792-0.693-3.443-1.953c-0.462-0.861-0.483-1.68-0.483-1.848v-4.766c0-0.693,0.546-1.239,1.218-1.239
		s1.239,0.546,1.239,1.239v4.766c0,0.042,0.021,0.42,0.21,0.777c0.168,0.273,0.441,0.567,1.26,0.567
		c0.798,0,1.092-0.294,1.239-0.567c0.21-0.357,0.231-0.735,0.231-0.777v-4.766c0-0.693,0.546-1.239,1.218-1.239
		S270.229,58.605,270.229,59.298z"/>
	<path d="M284.886,64.19v0.231c0,0.798-0.294,1.596-0.861,2.205c-0.735,0.798-1.806,1.239-3.044,1.239
		c-1.386,0-2.646-0.693-3.275-1.785c-0.105-0.189-0.168-0.42-0.168-0.63c0-0.42,0.21-0.819,0.609-1.05
		c0.189-0.105,0.399-0.168,0.609-0.168c0.42,0,0.84,0.231,1.071,0.63s0.756,0.546,1.155,0.546c0.546,0,0.987-0.147,1.239-0.441
		c0.168-0.168,0.231-0.357,0.231-0.567c-0.105-0.252-1.008-0.693-1.722-0.861c-0.021,0-0.063,0-0.084-0.021
		c-1.239-0.357-2.729-1.176-2.729-3.044c0-1.638,1.512-2.855,3.527-2.855c0.672,0,1.407,0.21,1.974,0.567
		c0.378,0.231,0.588,0.63,0.588,1.05c0,0.231-0.063,0.441-0.189,0.651c-0.231,0.357-0.609,0.567-1.029,0.567
		c-0.231,0-0.462-0.063-0.672-0.189c-0.189-0.126-0.462-0.189-0.672-0.189c-0.756,0-1.071,0.315-1.071,0.399
		c0,0.147,0,0.42,0.924,0.693c0.189,0.042,0.84,0.21,1.512,0.525C284.424,62.469,284.823,63.477,284.886,64.19z"/>
	<path d="M296.373,62.973c0,2.688-2.205,4.892-4.913,4.892c-2.688,0-4.892-2.205-4.892-4.892c0-2.708,2.205-4.913,4.892-4.913
		C294.168,58.06,296.373,60.264,296.373,62.973z M293.916,62.973c0-1.365-1.092-2.457-2.457-2.457c-1.344,0-2.436,1.092-2.436,2.457
		c0,1.344,1.092,2.436,2.436,2.436C292.824,65.408,293.916,64.316,293.916,62.973z"/>
	<path d="M309.455,61.86v4.787c0,0.672-0.567,1.218-1.239,1.218s-1.218-0.546-1.218-1.218V61.86c0-0.126-0.042-0.504-0.21-0.84
		c-0.168-0.378-0.378-0.504-0.798-0.504s-0.651,0.126-0.819,0.504c-0.147,0.336-0.189,0.714-0.189,0.84v4.787
		c0,0.672-0.567,1.218-1.239,1.218s-1.218-0.546-1.218-1.218V61.86c0-0.126-0.042-0.504-0.189-0.84
		c-0.189-0.357-0.399-0.504-0.819-0.504s-0.651,0.147-0.819,0.504c-0.147,0.336-0.189,0.714-0.189,0.84v4.787
		c0,0.672-0.546,1.218-1.239,1.218c-0.672,0-1.218-0.546-1.218-1.218v-7.349c0-0.672,0.546-1.239,1.218-1.239
		c0.315,0,0.588,0.126,0.798,0.294c0.42-0.189,0.882-0.294,1.449-0.294c0.966,0,1.701,0.336,2.226,0.819
		c0.546-0.483,1.281-0.819,2.247-0.819C308.531,58.06,309.455,60.327,309.455,61.86z"/>
	<path d="M315.336,67.844c-1.281-0.063-2.394-0.609-3.149-1.554c-0.693-0.882-1.05-2.037-1.05-3.338
		c0-2.708,1.932-4.892,4.283-4.892c1.176,0,2.268,0.483,3.065,1.386c0.798,0.861,1.218,2.037,1.218,3.296
		c0,0.672-0.546,1.239-1.218,1.239h-4.766c0.21,0.672,0.672,1.386,1.743,1.428h0.126c0.315,0,0.903,0,1.428-0.378
		c0.21-0.126,0.441-0.189,0.672-0.189c0.399,0,0.798,0.189,1.029,0.546c0.147,0.189,0.21,0.42,0.21,0.651
		c0,0.399-0.21,0.819-0.567,1.05c-1.008,0.672-2.058,0.777-2.646,0.777C315.546,67.865,315.42,67.865,315.336,67.844z
		 M316.995,61.524c-0.315-0.63-0.882-1.029-1.575-1.029c-0.588,0-1.134,0.42-1.47,1.029H316.995z"/>
	<path d="M208.574,96.739V84.478c0-0.672,0.546-1.218,1.218-1.218c0.504,0,0.924,0.294,1.113,0.714
		c0.756-0.441,1.638-0.714,2.562-0.714c2.708,0,4.913,2.205,4.913,4.892c0,2.708-2.205,4.913-4.913,4.913
		c-0.882,0-1.722-0.252-2.436-0.672v4.346c0,0.672-0.567,1.218-1.239,1.218S208.574,97.411,208.574,96.739z M211.031,88.152
		c0,1.365,1.092,2.457,2.436,2.457c1.365,0,2.457-1.092,2.457-2.457c0-1.344-1.092-2.436-2.457-2.436
		C212.123,85.716,211.031,86.808,211.031,88.152z"/>
	<path d="M222.518,79.585v12.262c0,0.672-0.546,1.218-1.239,1.218c-0.672,0-1.218-0.546-1.218-1.218V79.585
		c0-0.672,0.546-1.218,1.218-1.218C221.972,78.368,222.518,78.914,222.518,79.585z"/>
	<path d="M232.764,91.847c0,0.651-0.546,1.218-1.218,1.218c-0.483,0-0.903-0.273-1.092-0.672c-0.441,0.231-0.924,0.399-1.449,0.504
		c-0.168,0.021-0.672,0.147-1.323,0.147c-1.785,0-3.023-0.903-3.401-2.499c-0.063-0.231-0.084-0.462-0.084-0.693
		c0-0.588,0.189-1.155,0.546-1.617c0.483-0.63,1.491-1.386,3.758-1.47c0.315,0,0.609-0.021,0.924-0.021c0.231,0,0.504,0,0.798,0.042
		c-0.063-0.336-0.21-0.693-0.42-0.819c-0.315-0.168-0.693-0.252-1.05-0.252c-0.798,0-1.596,0.357-2.037,0.714
		c-0.231,0.189-0.504,0.273-0.777,0.273c-0.357,0-0.693-0.147-0.945-0.441c-0.189-0.231-0.273-0.504-0.273-0.777
		c0-0.357,0.147-0.714,0.441-0.945c0.84-0.693,1.869-1.134,3.002-1.239c0.189-0.021,0.357-0.021,0.546-0.021
		c0.84,0,1.638,0.189,2.289,0.546c1.68,0.945,1.743,3.149,1.743,3.38v3.296L232.764,91.847z M230.14,89.244
		c-0.147-0.021-0.378-0.042-0.714-0.042c-0.273,0-0.567,0-1.071,0.021c-0.966,0.042-1.512,0.294-1.659,0.483
		c-0.021,0.042-0.063,0.084-0.063,0.168c0,0.021,0.021,0.063,0.021,0.105c0.063,0.252,0.147,0.609,1.029,0.609
		c0.378,0,0.693-0.063,0.798-0.084c0.042-0.021,0.063-0.021,0.084-0.021c0.777-0.147,1.26-0.609,1.47-0.987L230.14,89.244z"/>
	<path d="M239.758,92.372l-0.147,0.231l-2.1,4.64c-0.21,0.462-0.651,0.714-1.113,0.714c-0.168,0-0.357-0.021-0.525-0.105
		c-0.441-0.189-0.693-0.651-0.693-1.113c0-0.168,0.021-0.336,0.105-0.504l1.995-4.43l-3.212-6.782
		c-0.084-0.168-0.126-0.336-0.126-0.525c0-0.462,0.252-0.903,0.693-1.113c0.168-0.084,0.357-0.126,0.525-0.126
		c0.462,0,0.903,0.273,1.113,0.714l2.394,5.018l2.373-5.018c0.21-0.441,0.651-0.714,1.113-0.714c0.168,0,0.357,0.042,0.525,0.126
		c0.441,0.21,0.693,0.651,0.693,1.113c0,0.189-0.042,0.357-0.126,0.525L239.758,92.372z"/>
	<path d="M250.679,88.173c0-2.708,2.058-4.913,4.598-4.913c0.651,0,1.281,0.147,1.89,0.441c0.441,0.189,0.693,0.63,0.693,1.092
		c0,0.189-0.042,0.357-0.126,0.525c-0.21,0.441-0.63,0.714-1.092,0.714c-0.168,0-0.357-0.042-0.525-0.126
		c-0.273-0.126-0.546-0.189-0.84-0.189c-1.176,0-2.142,1.092-2.142,2.457c0,1.344,0.966,2.436,2.142,2.436
		c0.294,0,0.567-0.063,0.84-0.189c0.168-0.084,0.336-0.105,0.504-0.105c0.462,0,0.903,0.252,1.113,0.693
		c0.084,0.168,0.126,0.336,0.126,0.525c0,0.462-0.252,0.903-0.693,1.113c-0.609,0.273-1.239,0.42-1.89,0.42
		C252.736,93.065,250.679,90.86,250.679,88.173z"/>
	<path d="M268.107,87.564v4.283c0,0.672-0.546,1.218-1.239,1.218c-0.672,0-1.218-0.546-1.218-1.218v-4.283
		c0-0.042-0.021-0.546-0.294-1.008c-0.357-0.567-0.966-0.84-1.911-0.84h-1.47v6.131c0,0.672-0.546,1.218-1.218,1.218
		s-1.218-0.546-1.218-1.218V79.585c0-0.672,0.546-1.218,1.218-1.218s1.218,0.546,1.218,1.218v3.674h1.47
		c1.848,0,3.296,0.777,4.073,2.163C268.086,86.43,268.107,87.438,268.107,87.564z"/>
	<path d="M271.006,81.454c-0.672,0-1.218-0.546-1.218-1.239c0-0.672,0.546-1.218,1.218-1.218s1.239,0.546,1.239,1.218
		C272.245,80.908,271.678,81.454,271.006,81.454z M269.789,91.847v-7.349c0-0.672,0.546-1.239,1.218-1.239s1.239,0.567,1.239,1.239
		v7.349c0,0.672-0.567,1.218-1.239,1.218S269.789,92.519,269.789,91.847z"/>
	<path d="M273.925,96.739V84.478c0-0.672,0.546-1.218,1.218-1.218c0.504,0,0.924,0.294,1.113,0.714
		c0.756-0.441,1.638-0.714,2.562-0.714c2.708,0,4.913,2.205,4.913,4.892c0,2.708-2.205,4.913-4.913,4.913
		c-0.882,0-1.722-0.252-2.436-0.672v4.346c0,0.672-0.567,1.218-1.239,1.218S273.925,97.411,273.925,96.739z M276.382,88.152
		c0,1.365,1.092,2.457,2.436,2.457c1.365,0,2.457-1.092,2.457-2.457c0-1.344-1.092-2.436-2.457-2.436
		C277.474,85.716,276.382,86.808,276.382,88.152z"/>
	<path d="M292.761,89.391v0.231c0,0.798-0.294,1.596-0.861,2.205c-0.735,0.798-1.806,1.239-3.044,1.239
		c-1.386,0-2.646-0.693-3.275-1.785c-0.105-0.189-0.168-0.42-0.168-0.63c0-0.42,0.21-0.819,0.609-1.05
		c0.189-0.105,0.399-0.168,0.609-0.168c0.42,0,0.84,0.231,1.071,0.63s0.756,0.546,1.155,0.546c0.546,0,0.987-0.147,1.239-0.441
		c0.168-0.168,0.231-0.357,0.231-0.567c-0.105-0.252-1.008-0.693-1.722-0.861c-0.021,0-0.063,0-0.084-0.021
		c-1.239-0.357-2.729-1.176-2.729-3.044c0-1.638,1.512-2.855,3.527-2.855c0.672,0,1.407,0.21,1.974,0.567
		c0.378,0.231,0.588,0.63,0.588,1.05c0,0.231-0.063,0.441-0.189,0.651c-0.231,0.357-0.609,0.567-1.029,0.567
		c-0.231,0-0.462-0.063-0.672-0.189c-0.189-0.126-0.462-0.189-0.672-0.189c-0.756,0-1.071,0.315-1.071,0.399
		c0,0.147,0,0.42,0.924,0.693c0.189,0.042,0.84,0.21,1.512,0.525C292.299,87.669,292.698,88.677,292.761,89.391z"/>
	<path d="M303.008,82.651c0,2.037-0.735,3.275-2.499,4.157c-0.42,0.21-0.546,1.071-0.546,1.365c0,0.672-0.546,1.218-1.239,1.218
		c-0.672,0-1.218-0.546-1.218-1.218c0-0.273,0.042-2.625,1.911-3.569c0.84-0.42,1.155-0.777,1.155-1.953
		c0-1.008-0.819-1.827-1.848-1.827c-1.008,0-1.827,0.819-1.827,1.827c0,0.672-0.546,1.239-1.239,1.239
		c-0.672,0-1.218-0.567-1.218-1.239c0-2.352,1.932-4.283,4.283-4.283C301.098,78.368,303.008,80.299,303.008,82.651z
		 M299.964,91.847c0,0.672-0.546,1.218-1.239,1.218c-0.672,0-1.218-0.546-1.218-1.218c0-0.693,0.546-1.239,1.218-1.239
		C299.418,90.608,299.964,91.154,299.964,91.847z"/>
</g>
<line style="fill:none;stroke:#000000;stroke-miterlimit:10;" x1="360.433" y1="154.221" x2="366.183" y2="164.054"/>
<line style="fill:none;stroke:#000000;stroke-miterlimit:10;" x1="361.058" y1="153.721" x2="365.725" y2="161.638"/>
<line style="fill:none;stroke:#000000;stroke-miterlimit:10;" x1="362.89" y1="155.704" x2="363.901" y2="157.455"/>
<line style="fill:none;stroke:#000000;stroke-miterlimit:10;" x1="361.058" y1="153.721" x2="361.613" y2="154.662"/>
<line style="fill:none;stroke:#000000;stroke-miterlimit:10;" x1="360.623" y1="154.784" x2="366.161" y2="164.255"/>
<ellipse style="fill:#C7B299;stroke:#000000;stroke-width:4;stroke-miterlimit:10;" cx="587.484" cy="394.538" rx="22.667" ry="19.557"/>
<polygon style="stroke:#000000;stroke-width:2;stroke-miterlimit:10;" points="397.567,166.774 454.786,168.555 414.549,182.804 "/>
<line style="fill:none;stroke:#000000;stroke-width:5;stroke-miterlimit:10;" x1="274.85" y1="254.567" x2="398.379" y2="254.567"/>
<line style="fill:none;stroke:#000000;stroke-width:5;stroke-miterlimit:10;" x1="363.453" y1="254.619" x2="386.247" y2="254.619"/>
<path style="fill:none;stroke:#000000;stroke-width:5;stroke-miterlimit:10;" d="M314.183,248.396"/>
<polygon style="fill:#F7931E;stroke:#000000;stroke-width:5;stroke-miterlimit:10;" points="289.368,233.737 299.388,216.382 
	279.347,216.382 "/>
<line style="fill:none;stroke:#000000;stroke-width:5;stroke-miterlimit:10;" x1="289.368" y1="233.737" x2="289.368" y2="249.375"/>
<line style="fill:none;stroke:#000000;stroke-width:5;stroke-miterlimit:10;" x1="278.034" y1="249.375" x2="300.829" y2="249.375"/>
<polygon style="fill:#F7931E;stroke:#000000;stroke-width:5;stroke-miterlimit:10;" points="332.801,233.879 342.821,216.523 
	322.781,216.523 "/>
<line style="fill:none;stroke:#000000;stroke-width:5;stroke-miterlimit:10;" x1="332.801" y1="233.879" x2="332.801" y2="249.517"/>
<line style="fill:none;stroke:#000000;stroke-width:5;stroke-miterlimit:10;" x1="321.468" y1="249.517" x2="344.262" y2="249.517"/>
<polygon style="fill:#F7931E;stroke:#000000;stroke-width:5;stroke-miterlimit:10;" points="372.12,233.435 382.14,216.08 
	362.099,216.08 "/>
<line style="fill:none;stroke:#000000;stroke-width:5;stroke-miterlimit:10;" x1="372.12" y1="233.435" x2="372.12" y2="249.073"/>
<line style="fill:none;stroke:#000000;stroke-width:5;stroke-miterlimit:10;" x1="360.786" y1="249.073" x2="383.581" y2="249.073"/>
<g>
</g>
<g>
</g>
<g>
</g>
<g>
</g>
<g>
</g>
</svg>
