<?xml version="1.0" encoding="iso-8859-1"?>
<!-- Generator: Adobe Illustrator 21.1.0, SVG Export Plug-In . SVG Version: 6.00 Build 0)  -->
<svg version="1.1" id="Layer_1" xmlns="http://www.w3.org/2000/svg" xmlns:xlink="http://www.w3.org/1999/xlink" x="0px" y="0px"
	 viewBox="0 0 560 560" style="enable-background:new 0 0 560 560;" xml:space="preserve">
<g>
	<g>
		<path d="M408.589,337.379v-64.257c7.884,0,14.301-6.178,14.301-13.769c0-7.592-6.416-13.769-14.301-13.769h-99.757
			c0.114-0.372,0.262-0.725,0.343-1.111c0.915-4.448-0.591-8.927-4.033-11.989c-3.837-3.415-6.288-7.105-7.289-10.965l-0.901-3.474
			h-7.536v-2.69l12.904-12.425c1.864-1.795,1.864-4.695,0-6.49s-4.877-1.795-6.74,0l-6.164,5.935v-11.869v-0.652
			c8.199-2.052,14.301-9.175,14.301-17.707v-9.18h-14.301v-13.769h-23.835v22.949c0,8.532,6.102,15.656,14.301,17.707v0.652v27.539
			h-7.536l-0.901,3.474c-1.001,3.86-3.456,7.55-7.289,10.965c-3.442,3.061-4.953,7.546-4.033,11.984
			c0.081,0.386,0.229,0.744,0.343,1.115H151.175c-7.884,0-14.301,6.178-14.301,13.769c0,7.592,6.416,13.769,14.301,13.769v64.257
			c0,41.744-13.586,66.415-13.724,66.653c-0.796,1.427-0.763,3.153,0.1,4.535c0.858,1.391,2.407,2.249,4.09,2.249
			c37.702,0,38.135-70.44,38.135-73.437v-15.995c0-20.943,14.658-39.426,35.647-44.934l12.666-3.328h103.59l12.666,3.328
			c20.989,5.508,35.647,23.991,35.647,44.934v15.995c0,2.997,0.434,73.437,38.135,73.437c1.683,0,3.241-0.858,4.1-2.244
			c0.858-1.395,0.891-3.121,0.086-4.539C422.17,403.789,408.589,379.33,408.589,337.379z M294.183,172.146
			c0,3.392-1.921,6.361-4.767,7.945v-7.945H294.183z M275.115,172.146v-13.769h4.767v4.59v17.125
			C277.036,178.507,275.115,175.537,275.115,172.146z"/>
	</g>
</g>
<g>
	<path style="fill:#959CB3;" d="M362.186,213.918H189.752l11.977-55.263c0.556-2.564,2.995-4.41,5.829-4.41h136.822
		c2.834,0,5.273,1.846,5.829,4.41L362.186,213.918z"/>
	<ellipse style="fill:#FFE3A8;" cx="275.969" cy="170.158" rx="56.041" ry="51.717"/>
	<path style="fill:#FFD782;" d="M275.969,225.853c-33.278,0-60.352-24.985-60.352-55.695s27.074-55.695,60.352-55.695
		s60.352,24.985,60.352,55.695S309.247,225.853,275.969,225.853z M275.969,130.376c-23.769,0-43.109,17.847-43.109,39.782
		c0,21.938,19.339,39.782,43.109,39.782s43.109-17.845,43.109-39.782C319.077,148.223,299.738,130.376,275.969,130.376z"/>
	<path style="fill:#FFC36E;" d="M275.969,217.896c-28.524,0-51.73-21.415-51.73-47.739s23.206-47.739,51.73-47.739
		s51.73,21.415,51.73,47.739S304.493,217.896,275.969,217.896z M275.969,130.376c-23.77,0-43.109,17.846-43.109,39.782
		s19.339,39.782,43.109,39.782c23.77,0,43.109-17.846,43.109-39.782S299.739,130.376,275.969,130.376z"/>
	<path style="fill:#E1B464;" d="M295.155,179.853c0-6.873-4.393-11.085-13.178-12.858l-3.093-0.56v-11.812
		c2.361,0.457,4.224,1.748,5.153,3.469c0.787,1.456,2.391,2.38,4.155,2.38c3.593,0,5.923-3.654,4.01-6.461
		c-2.497-3.663-7.177-6.12-13.318-6.749v-2.04c0-1.607-1.411-2.909-3.153-2.909s-3.153,1.302-3.153,2.909v2.039
		c-9.747,0.979-15.449,5.902-15.449,13.433c0,6.587,4.427,10.99,12.698,12.763l2.751,0.599v12.414
		c-2.786-0.478-4.905-1.796-5.95-3.647c-0.813-1.438-2.391-2.367-4.149-2.367h-0.463c-3.595,0-5.898,3.644-4.009,6.466
		c2.573,3.845,7.651,6.268,14.573,6.804v1.372c0,1.607,1.411,2.909,3.153,2.909c1.741,0,3.153-1.302,3.153-2.909v-1.402
		C289.292,192.706,295.155,187.749,295.155,179.853z M267.049,159.9c0-2.764,2.262-4.855,5.531-5.325v10.635
		C268.967,164.302,267.049,162.483,267.049,159.9z M278.885,186.582v-11.426c4.469,0.928,6.558,2.765,6.558,5.711
		C285.444,184.075,283.024,186.18,278.885,186.582z"/>
	<g>
		<path style="fill:#FFFFFF;" d="M318.714,142.675c-6.433-1.354-11.497-6.027-12.963-11.963c-0.11-0.447-0.752-0.447-0.862,0
			c-1.467,5.937-6.531,10.61-12.963,11.963c-0.484,0.102-0.484,0.694,0,0.796c6.433,1.354,11.497,6.027,12.963,11.963
			c0.11,0.447,0.752,0.447,0.862,0c1.467-5.937,6.531-10.61,12.963-11.963C319.199,143.368,319.199,142.777,318.714,142.675z"/>
		<path style="fill:#FFFFFF;" d="M301.493,159.136c-4.529-1.082-8.095-4.374-9.268-8.553c-0.118-0.42-0.707-0.42-0.824,0
			c-1.173,4.179-4.739,7.471-9.268,8.553c-0.455,0.109-0.455,0.652,0,0.761c4.529,1.082,8.095,4.373,9.268,8.553
			c0.118,0.42,0.707,0.42,0.824,0c1.173-4.18,4.739-7.471,9.268-8.553C301.947,159.788,301.947,159.244,301.493,159.136z"/>
	</g>
	<g>
		<path style="fill:#AFB9D2;" d="M207.407,154.246L207.407,154.246c2.355,0,4.473,1.323,5.348,3.341l24.416,56.332h-47.42
			l12.006-55.4C202.297,156.034,204.661,154.246,207.407,154.246z"/>
		<path style="fill:#AFB9D2;" d="M344.531,154.246L344.531,154.246c2.745,0,5.109,1.788,5.648,4.273l12.006,55.4h-47.419
			l24.416-56.332C340.058,155.569,342.176,154.246,344.531,154.246z"/>
	</g>
	<path style="fill:#C7CFE2;" d="M345.486,195.843l-5.398,8.302c-2.337,3.595-6.547,5.794-11.09,5.794H222.94
		c-4.543,0-8.752-2.2-11.09-5.794l-5.398-8.302c-2.338-3.595-6.547-5.794-11.09-5.794h-35.786c-4.762,0-8.622,3.562-8.622,7.956
		v43.76c0,2.197,1.93,3.978,4.311,3.978h241.408c2.381,0,4.311-1.781,4.311-3.978v-43.76c0-4.394-3.86-7.956-8.622-7.956h-35.786
		C352.033,190.049,347.823,192.249,345.486,195.843z"/>
	<path style="fill:#AFB9D2;" d="M396.672,245.744H155.265c-2.381,0-4.311-1.781-4.311-3.978v-7.956c0-2.197,1.93-3.978,4.311-3.978
		h241.408c2.381,0,4.311,1.781,4.311,3.978v7.956C400.984,243.963,399.053,245.744,396.672,245.744z"/>
</g>
</svg>
