<?xml version="1.0" encoding="iso-8859-1"?>
<!-- Generator: Adobe Illustrator 21.1.0, SVG Export Plug-In . SVG Version: 6.00 Build 0)  -->
<svg version="1.1" id="Layer_1" xmlns="http://www.w3.org/2000/svg" xmlns:xlink="http://www.w3.org/1999/xlink" x="0px" y="0px"
	 viewBox="0 0 560 560" style="enable-background:new 0 0 560 560;" xml:space="preserve">
<g>
	<path style="fill:#959CB3;" d="M362.013,267.625H189.578l11.977-55.263c0.556-2.564,2.995-4.41,5.829-4.41h136.822
		c2.834,0,5.273,1.846,5.829,4.41L362.013,267.625z"/>
	<ellipse style="fill:#FFE3A8;" cx="275.796" cy="223.864" rx="56.041" ry="51.717"/>
	<path style="fill:#FFD782;" d="M275.796,279.559c-33.278,0-60.352-24.985-60.352-55.695s27.074-55.695,60.352-55.695
		s60.352,24.985,60.352,55.695S309.074,279.559,275.796,279.559z M275.796,184.082c-23.769,0-43.109,17.847-43.109,39.782
		c0,21.938,19.339,39.782,43.109,39.782s43.109-17.845,43.109-39.782C318.904,201.929,299.565,184.082,275.796,184.082z"/>
	<path style="fill:#FFC36E;" d="M275.796,271.603c-28.524,0-51.73-21.415-51.73-47.739s23.206-47.739,51.73-47.739
		s51.73,21.415,51.73,47.739S304.32,271.603,275.796,271.603z M275.796,184.082c-23.77,0-43.109,17.846-43.109,39.782
		s19.339,39.782,43.109,39.782c23.77,0,43.109-17.846,43.109-39.782S299.566,184.082,275.796,184.082z"/>
	<path style="fill:#E1B464;" d="M294.982,233.559c0-6.873-4.393-11.085-13.178-12.858l-3.093-0.56v-11.812
		c2.361,0.457,4.224,1.748,5.153,3.469c0.787,1.456,2.391,2.38,4.155,2.38c3.593,0,5.923-3.654,4.01-6.461
		c-2.497-3.663-7.177-6.12-13.318-6.749v-2.04c0-1.607-1.411-2.909-3.153-2.909c-1.741,0-3.153,1.302-3.153,2.909v2.039
		c-9.747,0.979-15.449,5.902-15.449,13.433c0,6.587,4.427,10.99,12.698,12.763l2.751,0.599v12.414
		c-2.786-0.478-4.905-1.796-5.95-3.647c-0.813-1.438-2.391-2.367-4.149-2.367h-0.463c-3.595,0-5.898,3.644-4.009,6.466
		c2.573,3.845,7.651,6.268,14.573,6.804v1.372c0,1.607,1.411,2.909,3.153,2.909c1.741,0,3.153-1.302,3.153-2.909v-1.402
		C289.119,246.412,294.982,241.455,294.982,233.559z M266.876,213.607c0-2.764,2.262-4.855,5.531-5.325v10.635
		C268.794,218.009,266.876,216.189,266.876,213.607z M278.712,240.288v-11.426c4.469,0.928,6.558,2.765,6.558,5.711
		C285.27,237.782,282.851,239.886,278.712,240.288z"/>
	<g>
		<path style="fill:#FFFFFF;" d="M318.541,196.381c-6.433-1.354-11.497-6.027-12.963-11.963c-0.11-0.447-0.752-0.447-0.862,0
			c-1.467,5.937-6.531,10.61-12.963,11.963c-0.484,0.102-0.484,0.694,0,0.796c6.433,1.354,11.497,6.027,12.963,11.963
			c0.11,0.447,0.752,0.447,0.862,0c1.467-5.937,6.531-10.61,12.963-11.963C319.025,197.075,319.025,196.483,318.541,196.381z"/>
		<path style="fill:#FFFFFF;" d="M301.32,212.842c-4.529-1.082-8.095-4.374-9.268-8.553c-0.118-0.42-0.707-0.42-0.824,0
			c-1.173,4.179-4.739,7.471-9.268,8.553c-0.455,0.109-0.455,0.652,0,0.761c4.529,1.082,8.095,4.373,9.268,8.553
			c0.118,0.42,0.707,0.42,0.824,0c1.173-4.18,4.739-7.471,9.268-8.553C301.774,213.494,301.774,212.95,301.32,212.842z"/>
	</g>
	<g>
		<path style="fill:#AFB9D2;" d="M207.233,207.952L207.233,207.952c2.355,0,4.473,1.323,5.348,3.341l24.416,56.332h-47.42
			l12.006-55.4C202.124,209.74,204.487,207.952,207.233,207.952z"/>
		<path style="fill:#AFB9D2;" d="M344.358,207.952L344.358,207.952c2.745,0,5.109,1.788,5.648,4.273l12.006,55.4h-47.419
			l24.416-56.332C339.885,209.275,342.003,207.952,344.358,207.952z"/>
	</g>
	<path style="fill:#C7CFE2;" d="M345.313,249.55l-5.398,8.302c-2.337,3.595-6.547,5.794-11.09,5.794H222.766
		c-4.543,0-8.752-2.2-11.09-5.794l-5.398-8.302c-2.338-3.595-6.547-5.794-11.09-5.794h-35.786c-4.762,0-8.622,3.562-8.622,7.956
		v43.76c0,2.197,1.93,3.978,4.311,3.978H396.5c2.381,0,4.311-1.781,4.311-3.978v-43.76c0-4.394-3.86-7.956-8.622-7.956h-35.786
		C351.86,243.756,347.65,245.955,345.313,249.55z"/>
	<path style="fill:#AFB9D2;" d="M396.499,299.451H155.092c-2.381,0-4.311-1.781-4.311-3.978v-7.956c0-2.197,1.93-3.978,4.311-3.978
		H396.5c2.381,0,4.311,1.781,4.311,3.978v7.956C400.81,297.669,398.88,299.451,396.499,299.451z"/>
	<g>
	</g>
	<g>
	</g>
	<g>
	</g>
	<g>
	</g>
	<g>
	</g>
	<g>
	</g>
	<g>
	</g>
	<g>
	</g>
	<g>
	</g>
	<g>
	</g>
	<g>
	</g>
	<g>
	</g>
	<g>
	</g>
	<g>
	</g>
	<g>
	</g>
</g>
<g>
</g>
<g>
</g>
<g>
</g>
<g>
</g>
<g>
</g>
</svg>
