<?xml version="1.0" encoding="utf-8"?>
<!-- Generator: Adobe Illustrator 21.1.0, SVG Export Plug-In . SVG Version: 6.00 Build 0)  -->
<svg version="1.1" id="Layer_1" xmlns="http://www.w3.org/2000/svg" xmlns:xlink="http://www.w3.org/1999/xlink" x="0px" y="0px"
	 viewBox="0 0 560 560" style="enable-background:new 0 0 560 560;" xml:space="preserve">
<g>
	<path d="M212.3,182.9c-53.9,37.1-67.6,111-30.4,164.9s111,67.6,164.9,30.4c53.9-37.1,67.6-111,30.4-164.9S266.3,145.8,212.3,182.9
		L212.3,182.9z M383.6,299.8c-5.1,27.8-20.8,51.9-44,67.9c-23.3,16-51.4,22-79.2,16.9c-27.8-5.1-51.9-20.8-67.9-44
		s-22-51.4-16.9-79.2c5.1-27.8,20.8-51.9,44-67.9c23.3-16,51.4-22,79.2-16.9c27.8,5.1,51.9,20.8,67.9,44
		C382.7,243.9,388.7,272,383.6,299.8L383.6,299.8z M383.6,299.8"/>
	<path d="M221,306.4l-4.4,3.1l14.1,20.4l4.4-3.1c2.1-1.5,3.2-3.4,3.4-5.7c0.2-2.3-0.6-4.6-2.2-7l-3.4-5c-1.6-2.3-3.3-3.6-5.5-4.2
		C225.2,304.3,223.1,304.9,221,306.4L221,306.4z M221,306.4"/>
	<path d="M324.7,234.9l-5.4,3.7l5.9,8.6l5.3-3.6c1.7-1.2,2.6-2.5,2.9-3.8c0.3-1.3,0-2.6-0.9-4c-0.9-1.4-2.1-2.1-3.5-2.4
		C327.7,233.2,326.3,233.8,324.7,234.9L324.7,234.9z M324.7,234.9"/>
	<path d="M227.2,204.5c-42,28.9-52.6,86.4-23.7,128.4c28.9,42,86.4,52.6,128.4,23.7c42-28.9,52.6-86.4,23.7-128.4
		C326.7,186.2,269.2,175.6,227.2,204.5L227.2,204.5z M348.4,255.6c-1-0.3-1.7-0.7-2.6-1.6c-0.9-0.9-1.6-1.9-2.3-2.9L342,249
		c-1-1.5-2.2-2.2-3.6-2.5c-1.4-0.3-2.8,0.3-4.2,1.3l-5.8,4l8.2,11.9l-48.8,33.6l-6.6-5.2l-10.5,7.2l2.5,8l-23.7,16.3l-4.8-7
		c0.2,1.7,0.5,3.3,0.1,4.9c-0.8,3.9-2.8,7.1-6.4,9.7l-10.7,7.4l-20.4-29.7l10.7-7.4c3.6-2.5,7.2-3.5,11.2-2.8
		c1.7,0.3,2.9,0.9,4.4,1.7l-4.5-6.5l20.4-14.1l3.2,4.6l-14.5,10l5,7.2l12.5-8.6l3.2,4.6l-12.5,8.6l5.9,8.6l13.3-9.1l-8.6-31l6.1-4.2
		l26.3,19.3L272,264.4l5.9-4.1l17.2,25l12.5-8.6l-17.2-25l31.1-21.4c3.4-2.3,6.5-3.6,9.5-3.3c3,0.2,5.3,1.6,7.2,4.3
		c1.1,1.5,1.6,3.1,1.5,4.8c0,1.7-0.6,3.3-1.7,5.1c2.1-0.7,3.9-0.7,5.5,0c1.6,0.7,3,1.9,4.3,3.7l1.5,2.2c0.6,0.8,1.2,1.7,2,2.4
		c0.8,0.8,1.5,1.3,2.5,1.3l0.4,0.6L348.4,255.6z M348.4,255.6"/>
	<path d="M304.6,259.5l11.9-8.2l3.2,4.6l-11.9,8.2l5.9,8.6l13.8-9.5l-14.1-20.4l-13.8,9.5L304.6,259.5z M304.6,259.5"/>
	<path d="M264.6,279.3l4.5,14.4l7.5-5.2l-11.8-9.3L264.6,279.3z M264.6,279.3"/>
</g>
</svg>
