<?xml version="1.0" encoding="utf-8"?>
<!-- Generator: Adobe Illustrator 21.1.0, SVG Export Plug-In . SVG Version: 6.00 Build 0)  -->
<svg version="1.1" id="Layer_1" xmlns="http://www.w3.org/2000/svg" xmlns:xlink="http://www.w3.org/1999/xlink" x="0px" y="0px"
	 viewBox="0 0 229.9 188.3" style="enable-background:new 0 0 229.9 188.3;" xml:space="preserve">
<style type="text/css">
	.st0{fill:#FFE100;}
	.st1{fill:#FFA800;}
	.st2{fill:#FFFFFF;}
	.st3{fill:#E64C3C;}
	.st4{fill:#3D324C;}
	.st5{fill:#C03A2B;}
	.st6{fill:#F0C419;}
	.st7{fill:#C03A2C;}
	.st8{fill:#FFE100;stroke:#000000;stroke-width:4;stroke-miterlimit:10;}
</style>
<g>
	<g transform="translate(1 1)">
		<path class="st0" d="M70.7,152.6V23.3c0-3,2.4-5.4,5.4-5.4h52.2L124,5.7c-0.8-2.9-3.7-4.6-6.6-3.8L26.3,22.6
			c-2.9,0.8-4.6,3.7-3.8,6.6L56,154.1c0.8,2.9,3.7,4.6,6.6,3.8l9-2.4C71,154.7,70.7,153.7,70.7,152.6"/>
		<path class="st1" d="M170.3,17.9h-48.5c-3,0-5.4,2.4-5.4,5.4v129.3c0,3,2.4,5.4,5.4,5.4h48.5c3,0,5.4-2.4,5.4-5.4V23.3
			C175.7,20.3,173.3,17.9,170.3,17.9"/>
		<path class="st2" d="M124.5,17.9H76.1c-3,0-5.4,2.4-5.4,5.4v129.3c0,3,2.4,5.4,5.4,5.4h48.5c3,0,5.4-2.4,5.4-5.4V23.3
			C129.9,20.3,127.5,17.9,124.5,17.9"/>
		<path class="st0" d="M162.3,17.9H84.1c-3,0-5.4,2.4-5.4,5.4v129.3c0,3,2.4,5.4,5.4,5.4h78.1c3,0,5.4-2.4,5.4-5.4V23.3
			C167.6,20.3,165.2,17.9,162.3,17.9"/>
		<path class="st1" d="M129.9,106.9c-0.2-0.1-0.3,0.1-0.3,0.2l4.5,11.4c0.4,0.8-0.2,1.7-1.1,1.7h-19.9c-0.9,0-1.5-0.9-1.1-1.7
			l3.7-11.5c0.1-0.2-0.1-0.3-0.3-0.2c-2.2,1.5-4.8,2.7-7.6,2.7c-8.7,0-16.2-7.3-15.7-16.1c0.3-4.9,3.5-9.2,7.7-11.8
			c4.2-2.6,7.7-2.9,11.2-2c-2.2-2.6-3.1-6.1-3.1-9.8c0-9.5,8.6-16.9,18.4-14.9c5.8,1.2,10.5,6,11.6,11.9c0.9,4.9,0.1,9.4-2.7,12.8
			c3.5-0.9,6.9-0.6,11.1,2.1c4.2,2.7,7.3,6.9,7.6,11.8c0.5,8.8-7.1,16-15.7,16C135.6,109.5,132.2,108.3,129.9,106.9"/>
		<path d="M170.3,160.6H76.1c-4.5,0-8.1-3.6-8.1-8.1V23.3c0-4.5,3.6-8.1,8.1-8.1h94.3c4.5,0,8.1,3.6,8.1,8.1v26.9
			c0,1.5-1.2,2.7-2.7,2.7s-2.7-1.2-2.7-2.7V23.3c0-1.5-1.2-2.7-2.7-2.7H76.1c-1.5,0-2.7,1.2-2.7,2.7v129.3c0,1.5,1.2,2.7,2.7,2.7
			h94.3c1.5,0,2.7-1.2,2.7-2.7V71.7c0-1.5,1.2-2.7,2.7-2.7s2.7,1.2,2.7,2.7v80.8C178.4,157,174.8,160.6,170.3,160.6z"/>
		<path d="M178.4,61c0,1.5-1.2,2.7-2.7,2.7S173,62.5,173,61s1.2-2.7,2.7-2.7S178.4,59.5,178.4,61"/>
		<path d="M165,112c-1.5,0-2.7-1.2-2.7-2.7v-78h-45.8c-1.5,0-2.7-1.2-2.7-2.7c0-1.5,1.2-2.7,2.7-2.7H165c1.5,0,2.7,1.2,2.7,2.7v80.7
			C167.6,110.8,166.4,112,165,112z"/>
		<path d="M81.4,150c-0.7,0-1.4-0.3-1.9-0.8c-0.5-0.5-0.8-1.2-0.8-1.9V66.5c0-1.5,1.2-2.7,2.7-2.7s2.7,1.2,2.7,2.7v78.1l51.2-0.1
			c0,0,0,0,0,0c1.5,0,2.7,1.2,2.7,2.7c0,1.5-1.2,2.7-2.7,2.7L81.4,150C81.4,150,81.4,150,81.4,150z"/>
		<path d="M133.1,122.9h-19.9c-1.4,0-2.6-0.7-3.3-1.8c-0.7-1.1-0.8-2.4-0.3-3.5l1.9-5.8c-1.2,0.3-2.4,0.5-3.5,0.5
			c-5.1,0-10-2.2-13.6-5.9c-3.4-3.6-5.1-8.2-4.8-13c0.3-5.5,3.6-10.6,8.9-13.9c2.6-1.6,5.2-2.6,7.8-2.8c-0.7-2-1.1-4.3-1.1-6.7
			c0-5.4,2.4-10.5,6.6-13.9c4.2-3.4,9.7-4.7,15.1-3.6c6.9,1.4,12.4,7.1,13.7,14c0.7,3.7,0.5,7.2-0.6,10.2c2.6,0.2,5.1,1.2,7.8,2.9
			c5.3,3.4,8.5,8.4,8.9,13.9c0.3,4.8-1.4,9.4-4.8,13c-3.5,3.8-8.5,5.9-13.6,5.9c-1.2,0-2.6-0.2-4-0.5l2.3,5.9c0.5,1,0.4,2.4-0.3,3.6
			C135.7,122.2,134.4,122.9,133.1,122.9z M115.2,117.5h15.6l-4.4-11.3l1.6-1.5c1-0.8,2.3-0.8,3.4-0.2l0,0c2,1.3,4.9,2.2,6.9,2.2
			c3.6,0,7.1-1.5,9.7-4.2c2.4-2.5,3.6-5.7,3.4-9c-0.2-3.7-2.5-7.3-6.4-9.7c-3.7-2.4-6.3-2.4-9-1.7l-8,1.9l5.3-6.3
			c2.8-3.3,2.7-7.5,2.1-10.5c-0.9-4.8-4.8-8.7-9.5-9.7c-3.9-0.8-7.6,0.1-10.6,2.5c-2.9,2.4-4.6,5.9-4.6,9.7c0,3.4,0.8,6.1,2.5,8.1
			l5.3,6.3l-8-1.9c-3.3-0.8-5.9-0.3-9.1,1.7c-3.8,2.4-6.2,6-6.4,9.7c-0.2,3.3,1,6.5,3.4,9c2.5,2.7,6,4.2,9.6,4.2
			c1.9,0,3.9-0.7,6.1-2.2l1.6-1.1l1.8,1.2c1,0.7,1.4,2,1,3.2L115.2,117.5z"/>
		<path d="M62.6,139.1c-1.2,0-2.3-0.8-2.6-2c-3-11.4-6.2-22.9-9.3-34.3c-3.1-11.3-6.2-22.6-9.2-33.8c-0.4-1.4,0.5-2.9,1.9-3.3
			c1.4-0.4,2.9,0.5,3.3,1.9c3,11.2,6.1,22.5,9.2,33.8c3.1,11.5,6.3,23,9.3,34.4c0.4,1.4-0.5,2.9-1.9,3.3
			C63,139.1,62.8,139.1,62.6,139.1z"/>
		<path d="M39.9,55.2c-0.2,0-0.4,0-0.5-0.1c-1.5-0.3-2.4-1.7-2.1-3.2l4.8-23.6c0.2-1,1-1.8,1.9-2.1c1-0.3,2,0.1,2.7,0.8l16,18
			c1,1.1,0.9,2.8-0.2,3.8c-1.1,1-2.8,0.9-3.8-0.2l-12.4-14L42.5,53C42.3,54.3,41.2,55.2,39.9,55.2z"/>
		<path d="M43.5,47.3c-1.2,0-2.3-0.8-2.6-2c-0.4-1.4,0.5-2.9,1.9-3.3l10.4-2.8c1.4-0.4,2.9,0.5,3.3,1.9c0.4,1.4-0.5,2.9-1.9,3.3
			l-10.4,2.8C43.9,47.3,43.7,47.3,43.5,47.3z"/>
		<path d="M61.2,160.8c-1.4,0-2.8-0.4-4-1.1c-1.9-1.1-3.2-2.8-3.8-4.9L19.9,29.9c-0.6-2.1-0.3-4.3,0.8-6.1c1.1-1.9,2.8-3.2,4.9-3.8
			l91.2-20.8c2-0.5,4.2-0.2,6,0.8c1.9,1.1,3.2,2.8,3.8,4.9l5.4,15.6h-56c-1.5,0-2.7,1.2-2.7,2.7v129.3c0,0.5,0.2,1,0.4,1.5l2.1,3.1
			l-12.6,3.4C62.6,160.7,61.9,160.8,61.2,160.8z M118.8,4.4c-0.2,0-0.5,0-0.7,0.1L26.9,25.3c-0.6,0.2-1.2,0.6-1.5,1.2
			c-0.4,0.6-0.5,1.3-0.3,2l33.5,124.9c0.2,0.7,0.6,1.3,1.3,1.6c0.6,0.4,1.3,0.5,2,0.3l6.2-1.7c-0.1-0.4-0.1-0.7-0.1-1.1V23.3
			c0-4.5,3.6-8.1,8.1-8.1h48.4l-3-8.6c-0.2-0.9-0.7-1.5-1.3-1.8C119.7,4.5,119.3,4.4,118.8,4.4z"/>
		<path d="M81.4,58.3c-1.5,0-2.7-1.2-2.7-2.7V28.6c0-1.5,1.2-2.7,2.7-2.7s2.7,1.2,2.7,2.7v26.9C84.1,57.1,82.9,58.3,81.4,58.3z"/>
		<path d="M81.4,47.5c-0.6,0-1.2-0.2-1.7-0.6c-1.1-1-1.3-2.7-0.3-3.8l13.5-16.2c1-1.1,2.6-1.3,3.8-0.3c1.1,1,1.3,2.7,0.3,3.8
			L83.5,46.5C83,47.2,82.2,47.5,81.4,47.5z"/>
		<path d="M97.6,58.3c-0.9,0-1.7-0.4-2.2-1.2L84.6,40.9c-0.8-1.2-0.5-2.9,0.7-3.7c1.2-0.8,2.9-0.5,3.7,0.7l10.8,16.2
			c0.8,1.2,0.5,2.9-0.7,3.7C98.6,58.1,98.1,58.3,97.6,58.3z"/>
		<path d="M165,149.9c-1.5,0-2.7-1.2-2.7-2.7v-26.9c0-1.5,1.2-2.7,2.7-2.7c1.5,0,2.7,1.2,2.7,2.7v26.9
			C167.6,148.7,166.4,149.9,165,149.9z"/>
		<path d="M151.5,149.9c-0.6,0-1.2-0.2-1.7-0.6c-1.1-1-1.3-2.7-0.3-3.8l13.5-16.2c1-1.1,2.6-1.3,3.8-0.3c1.1,1,1.3,2.7,0.3,3.8
			l-13.5,16.2C153,149.5,152.3,149.9,151.5,149.9z"/>
		<path d="M159.6,139.1c-0.9,0-1.7-0.4-2.2-1.2l-10.8-16.2c-0.8-1.2-0.5-2.9,0.7-3.7c1.2-0.8,2.9-0.5,3.7,0.7l10.8,16.2
			c0.8,1.2,0.5,2.9-0.7,3.7C160.6,138.9,160.1,139.1,159.6,139.1z"/>
	</g>
	<g>
		<g>
			<path class="st3" d="M224.5,63.6c-2.8,20.6-21.8,35.1-42.4,32.3c-20.6-2.8-35.1-21.8-32.3-42.4c2.8-20.6,21.7-35.1,42.4-32.3
				C212.8,24,227.3,43,224.5,63.6L224.5,63.6z M224.5,63.6"/>
			<path class="st4" d="M189.7,39.9c3.3,0.4,6.3,1.5,9.1,3l2.6-19.2c-2.9-1.2-6-2-9.2-2.4c-3.2-0.4-6.4-0.4-9.5-0.1l-2.6,19.2
				C183.1,39.6,186.4,39.4,189.7,39.9L189.7,39.9z M189.7,39.9"/>
			<path class="st4" d="M184.6,77.3c-3.3-0.4-6.3-1.5-9.1-3l-2.6,19.2c2.9,1.2,6,2,9.2,2.4c3.2,0.4,6.4,0.4,9.5,0.1l2.6-19.2
				C191.1,77.5,187.9,77.7,184.6,77.3L184.6,77.3z M184.6,77.3"/>
			<path class="st4" d="M205.8,61.1c-0.4,3.3-1.5,6.3-3,9.1l19.2,2.6c1.2-2.9,2-6,2.4-9.2c0.4-3.2,0.4-6.4,0.1-9.5l-19.2-2.6
				C206.1,54.6,206.3,57.8,205.8,61.1L205.8,61.1z M205.8,61.1"/>
			<path class="st4" d="M168.5,56.1c0.4-3.3,1.5-6.3,3-9.1l-19.2-2.6c-1.2,2.9-2,6-2.4,9.2c-0.4,3.2-0.4,6.4-0.1,9.5l19.2,2.6
				C168.2,62.6,168,59.3,168.5,56.1L168.5,56.1z M168.5,56.1"/>
			<path class="st5" d="M183.4,86.6c-15.4-2.1-26.3-16.3-24.2-31.8c2.1-15.4,16.3-26.3,31.8-24.2c15.5,2.1,26.3,16.3,24.3,31.8
				C213.1,77.8,198.8,88.7,183.4,86.6L183.4,86.6z M183.4,86.6"/>
			<path class="st6" d="M191.8,55.1c0.4-0.6,0.7-1.4,0.8-2.2c0.4-3-1.7-5.7-4.6-6.1c-2.9-0.4-5.7,1.7-6.1,4.6
				c-0.1,0.8,0,1.6,0.2,2.3c-2.9-0.3-5.5,1.7-5.9,4.6c-0.4,3,1.7,5.7,4.6,6.1c1.3,0.2,2.5-0.1,3.5-0.8c-0.1,1.1-0.6,2.8-1.9,3.9
				c-1,0.9-2.5,1.2-4.3,1c-0.7-0.1-1.4,0.4-1.5,1.2c-0.1,0.7,0.4,1.4,1.2,1.5c2.6,0.4,4.8-0.2,6.4-1.6c1.9-1.6,2.5-4,2.7-5.5
				c0.8,0.8,1.9,1.4,3.1,1.6c2.9,0.4,5.7-1.7,6.1-4.6C196.7,58.3,194.7,55.6,191.8,55.1L191.8,55.1z M191.8,55.1"/>
		</g>
		<g>
			<path d="M187.1,22.5c1.6,0,3.3,0.1,5,0.3c20.1,2.7,34.2,21,31.5,40.9c-2.5,18.2-18.1,31.5-36.2,31.5c-1.6,0-3.3-0.1-5-0.3
				c-20.1-2.7-34.2-21-31.5-40.9C153.4,35.7,169.1,22.5,187.1,22.5 M187.1,18.5L187.1,18.5c-20.2,0-37.5,15-40.2,34.9
				c-1.4,10.7,1.4,21.3,8,29.9c6.6,8.6,16.2,14.1,26.9,15.5c1.8,0.2,3.7,0.4,5.5,0.4c20.2,0,37.5-15,40.2-34.9
				c3-22-12.7-42.4-34.9-45.4C190.8,18.6,189,18.5,187.1,18.5L187.1,18.5z"/>
		</g>
		<g>
			<path d="M187.2,32c1.2,0,2.4,0.1,3.7,0.2c14.8,2,25.2,15.5,23.2,30.2c-1.8,13.4-13.4,23.2-26.7,23.2c-1.2,0-2.4-0.1-3.7-0.2
				c-14.8-2-25.2-15.5-23.2-30.2C162.3,41.8,173.9,32,187.2,32 M187.2,28L187.2,28c-15.4,0-28.6,11.5-30.7,26.7
				c-1.1,8.2,1.1,16.3,6.1,22.8c5,6.5,12.3,10.7,20.5,11.8c1.4,0.2,2.8,0.3,4.2,0.3c15.4,0,28.6-11.5,30.7-26.7
				c1.1-8.2-1.1-16.3-6.1-22.8c-5-6.5-12.3-10.7-20.5-11.8C190,28.1,188.6,28,187.2,28L187.2,28z"/>
		</g>
		<g>
			<g>
				<rect x="210.7" y="58" transform="matrix(0.1333 -0.9911 0.9911 0.1333 128.295 272.7235)" width="18.7" height="10.1"/>
			</g>
			<g>
				<rect x="145.4" y="49.2" transform="matrix(0.1333 -0.9911 0.9911 0.1333 80.4026 200.3832)" width="18.7" height="10.1"/>
			</g>
			<g>
				<rect x="178" y="81.9" transform="matrix(0.1333 -0.9911 0.9911 0.1333 68.1786 260.4996)" width="10.1" height="18.7"/>
			</g>
			<g>
				<rect x="186.8" y="16.6" transform="matrix(0.1333 -0.9911 0.9911 0.1333 140.5189 212.6072)" width="10.1" height="18.7"/>
			</g>
		</g>
		
			<ellipse transform="matrix(0.1333 -0.9911 0.9911 0.1333 103.9872 236.5989)" class="st7" cx="187.3" cy="58.8" rx="20.5" ry="17.4"/>
		<g>
			<g>
				<polygon class="st0" points="178.1,67 177.5,65.2 177.2,66.9 168.7,65.7 171.4,45.1 179.3,46.2 179.9,48.1 180.1,46.3 
					188.8,47.5 186,68.1 				"/>
				<path d="M173.1,47.4l4.6,0.6l2.3,6.7c0.4,1.1,0.6,1.8,0.9,3.1l0.1,0c-0.1-1.1-0.1-2.8,0.1-4l0.7-5.3l4.6,0.6l-2.2,16.7l-4.6-0.6
					l-2.4-7c-0.2-0.6-0.5-1.6-0.6-2.3l-0.1,0c0,0.9,0,2.4-0.1,3.1l-0.8,5.7l-4.6-0.6L173.1,47.4 M169.7,42.9l-0.5,4l-2.2,16.7
					l-0.5,4l4,0.5l4.6,0.6l4,0.5l0.1,0l4.6,0.6l4,0.5l0.5-4l2.2-16.7l0.5-4l-4-0.5l-4.6-0.6l-4-0.5l-0.1,0l-4.6-0.6L169.7,42.9
					L169.7,42.9z"/>
			</g>
			<g>
				<polygon class="st0" points="184.7,67.9 187.5,47.3 205.6,49.7 199.1,59.1 203.4,70.4 				"/>
				<path d="M189.2,49.5l4.6,0.6l-0.7,5.2c-0.1,0.7-0.2,1.3-0.4,2.1l0.1,0c0.4-0.9,0.6-1.3,1-1.8l3-5.1l5.2,0.7l-5.3,7.6l3.5,9.1
					l-5.6-0.8l-1.7-5.7c-0.2-0.5-0.3-1.2-0.4-1.7l-0.1,0c0,0.6,0,1-0.1,1.6l-0.7,5.4l-4.6-0.6L189.2,49.5 M185.8,45l-0.5,4L183,65.7
					l-0.5,4l4,0.5l4.6,0.6l0.5,0.1l0,0l0.2,0l3.3,0.4l4.7,0.6l6.7,0.9l-2.4-6.3l-2.7-7.1l4.1-5.9l3.7-5.4l-6.5-0.9l-4.3-0.6v0
					l-4-0.5l-4.6-0.6L185.8,45L185.8,45z"/>
			</g>
		</g>
		<line class="st8" x1="167.3" y1="70.8" x2="203.1" y2="75.6"/>
	</g>
	<g>
		<g>
			<path class="st3" d="M84.4,119.3c9.3,18.6,1.8,41.3-16.8,50.6c-18.6,9.3-41.3,1.8-50.6-16.8c-9.3-18.6-1.8-41.3,16.8-50.6
				C52.5,93.2,75.1,100.7,84.4,119.3L84.4,119.3z M84.4,119.3"/>
			<path class="st4" d="M42.3,119.4c3-1.5,6.1-2.3,9.2-2.7l-8.7-17.3c-3,0.7-6.1,1.7-9,3.2c-2.9,1.5-5.5,3.2-7.9,5.3l8.7,17.3
				C36.8,122.8,39.3,120.9,42.3,119.4L42.3,119.4z M42.3,119.4"/>
			<path class="st4" d="M59.2,153.1c-3,1.5-6.1,2.3-9.2,2.7l8.7,17.3c3-0.7,6-1.7,9-3.2c2.9-1.5,5.6-3.2,7.9-5.3l-8.7-17.3
				C64.7,149.6,62.2,151.6,59.2,153.1L59.2,153.1z M59.2,153.1"/>
			<path class="st4" d="M67.6,127.8c1.5,3,2.3,6.1,2.7,9.2l17.3-8.7c-0.7-3-1.7-6.1-3.2-9c-1.5-2.9-3.2-5.5-5.3-7.9l-17.3,8.7
				C64.1,122.3,66.1,124.8,67.6,127.8L67.6,127.8z M67.6,127.8"/>
			<path class="st4" d="M33.9,144.7c-1.5-3-2.3-6.1-2.7-9.2l-17.3,8.7c0.7,3,1.7,6,3.2,9c1.5,2.9,3.2,5.6,5.3,7.9l17.3-8.7
				C37.4,150.2,35.4,147.6,33.9,144.7L33.9,144.7z M33.9,144.7"/>
			<path class="st5" d="M63.4,161.5c-13.9,7-30.9,1.3-37.9-12.6c-7-13.9-1.3-30.9,12.6-37.9c13.9-7,31-1.3,37.9,12.6
				C83,137.5,77.3,154.5,63.4,161.5L63.4,161.5z M63.4,161.5"/>
			<path class="st6" d="M52.7,130.7c0-0.8-0.2-1.5-0.6-2.3c-1.3-2.7-4.6-3.7-7.2-2.4c-2.7,1.3-3.7,4.6-2.4,7.2
				c0.4,0.7,0.9,1.3,1.5,1.8c-2.6,1.4-3.6,4.5-2.3,7.1c1.3,2.7,4.6,3.7,7.2,2.4c1.2-0.6,2-1.5,2.5-2.6c0.5,1,1.1,2.6,0.7,4.3
				c-0.3,1.3-1.3,2.4-3,3.2c-0.7,0.3-0.9,1.1-0.6,1.8c0.3,0.7,1.1,0.9,1.8,0.6c2.4-1.2,3.9-2.9,4.4-5c0.6-2.4-0.2-4.7-0.8-6.1
				c1.1,0.2,2.4,0.1,3.5-0.4c2.7-1.3,3.7-4.6,2.4-7.2C58.5,130.6,55.3,129.5,52.7,130.7L52.7,130.7z M52.7,130.7"/>
		</g>
		<g>
			<path d="M51.2,100c13.4,0,26.2,7.3,32.5,20c9,17.9,1.6,39.8-16.5,48.9c-5.3,2.7-11,3.9-16.5,3.9c-13.4,0-26.2-7.3-32.5-20
				c-9-17.9-1.6-39.8,16.5-48.9C40,101.2,45.7,100,51.2,100 M51.3,96v4V96L51.3,96c-6.4,0-12.6,1.5-18.3,4.4
				c-20,10.1-28.2,34.4-18.3,54.3c6.9,13.7,20.7,22.2,36.1,22.2c6.4,0,12.6-1.5,18.3-4.4c9.7-4.9,17-13.2,20.4-23.4
				c3.5-10.3,2.7-21.2-2.1-30.9C80.5,104.5,66.7,96,51.3,96L51.3,96z"/>
		</g>
		<g>
			<path d="M51.2,109.5c9.9,0,19.3,5.4,24,14.7c6.6,13.2,1.2,29.4-12.2,36.1c-3.9,2-8.1,2.9-12.2,2.9c-9.9,0-19.3-5.4-24-14.7
				c-6.6-13.2-1.2-29.4,12.2-36.1C42.9,110.4,47.1,109.5,51.2,109.5 M51.2,105.5L51.2,105.5c-4.9,0-9.6,1.1-14,3.3
				c-15.3,7.7-21.6,26.3-13.9,41.4c5.2,10.4,15.8,16.9,27.6,16.9c4.9,0,9.6-1.1,14-3.3c15.3-7.7,21.6-26.3,13.9-41.4
				C73.5,112,63,105.5,51.2,105.5L51.2,105.5z"/>
		</g>
		<g>
			<g>
				<rect x="75.4" y="112" transform="matrix(0.8939 -0.4482 0.4482 0.8939 -45.8425 48.9313)" width="10.1" height="18.7"/>
			</g>
			<g>
				<rect x="16.5" y="141.5" transform="matrix(0.8939 -0.4482 0.4482 0.8939 -65.3293 25.6614)" width="10.1" height="18.7"/>
			</g>
			<g>
				<rect x="56.4" y="160.5" transform="matrix(0.8939 -0.4482 0.4482 0.8939 -67.2208 47.0398)" width="18.7" height="10.1"/>
			</g>
			<g>
				<rect x="26.9" y="101.6" transform="matrix(0.8939 -0.4482 0.4482 0.8939 -43.9509 27.553)" width="18.7" height="10.1"/>
			</g>
		</g>
		
			<ellipse transform="matrix(0.8939 -0.4482 0.4482 0.8939 -55.7098 37.3264)" class="st7" cx="51" cy="136.4" rx="17.4" ry="20.5"/>
		<g>
			<g>
				<polygon class="st0" points="30.2,134 37.3,130.4 38.8,131.6 38,130 45.8,126.1 55.1,144.7 48.1,148.3 46.5,147.1 47.3,148.7 
					39.5,152.6 				"/>
				<path d="M44.9,128.8l7.5,15l-4.2,2.1l-6-4.4c-0.5-0.4-1.3-1-1.8-1.5l-0.1,0.1c0.5,0.7,1.3,2,1.7,2.6l2.6,5.1l-4.2,2.1l-7.5-15
					l4.2-2.1l5.6,4.3c0.9,0.7,1.5,1.1,2.5,2.1l0.1-0.1c-0.7-0.9-1.6-2.3-2.2-3.4l-2.4-4.8L44.9,128.8 M46.7,123.4l-3.6,1.8l-4.2,2.1
					l-3.6,1.8l-0.1,0.1l-4.2,2.1l-3.6,1.8l1.8,3.6l7.5,15l1.8,3.6l3.6-1.8l4.2-2.1l1.5-0.7v0l2.2-1.1l4.2-2.1l3.6-1.8L56,142
					l-7.5-15L46.7,123.4L46.7,123.4z"/>
			</g>
			<g>
				<polygon class="st0" points="44.7,126.7 61,118.5 60.9,130 70.8,136.9 54,145.3 				"/>
				<path d="M59,121.8l-0.1,9.3l8,5.6l-5.1,2.5l-4.6-3.7c-0.4-0.3-0.9-0.8-1.3-1.2l-0.1,0c0.3,0.5,0.6,0.9,0.8,1.4l2.4,4.8l-4.2,2.1
					l-7.5-15l4.2-2.1l2.3,4.7c0.3,0.7,0.6,1.2,0.9,1.9l0.1,0c-0.2-1-0.2-1.4-0.2-2l-0.4-5.9L59,121.8 M63,115.3l-5.8,2.9l-4.7,2.4
					l-0.3,0.2l-2.4,1.2l-4.2,2.1l-3.6,1.8l1.8,3.6l7.5,15l1.8,3.6l3.6-1.8l4.2-2.1l0.5-0.2l0,0l2.3-1.2l5.1-2.5l6-3l-5.5-3.8
					l-6.3-4.4l0-7.1L63,115.3L63,115.3z"/>
			</g>
		</g>
		<line class="st8" x1="41.2" y1="157.5" x2="73.5" y2="141.3"/>
	</g>
</g>
</svg>
